<svg width="15" height="15" viewBox="0 0 15 15" fill="none" xmlns="http://www.w3.org/2000/svg">
<path d="M11.3547 8.93018C11.2221 8.93018 11.095 8.98285 11.0012 9.07662C10.9074 9.17039 10.8547 9.29757 10.8547 9.43018C10.8547 9.56278 10.9074 9.68996 11.0012 9.78373C11.095 9.8775 11.2221 9.93018 11.3547 9.93018H12.3547C12.4873 9.93018 12.6145 9.8775 12.7083 9.78373C12.8021 9.68996 12.8547 9.56278 12.8547 9.43018C12.8547 9.29757 12.8021 9.17039 12.7083 9.07662C12.6145 8.98285 12.4873 8.93018 12.3547 8.93018H11.3547ZM0.854736 2.43018C0.854736 2.03235 1.01277 1.65082 1.29408 1.36952C1.57538 1.08821 1.95691 0.930176 2.35474 0.930176H11.8547C12.3852 0.930176 12.8939 1.14089 13.2689 1.51596C13.644 1.89103 13.8547 2.39974 13.8547 2.93018V3.19818C14.1588 3.37371 14.4112 3.62618 14.5868 3.9302C14.7623 4.23423 14.8547 4.57911 14.8547 4.93018V12.9302C14.8547 13.4606 14.644 13.9693 14.2689 14.3444C13.8939 14.7195 13.3852 14.9302 12.8547 14.9302H3.35474C2.6917 14.9302 2.05581 14.6668 1.58697 14.1979C1.11813 13.7291 0.854736 13.0932 0.854736 12.4302V2.43018ZM11.8547 1.93018H2.35474C2.22213 1.93018 2.09495 1.98285 2.00118 2.07662C1.90741 2.17039 1.85474 2.29757 1.85474 2.43018C1.85474 2.56278 1.90741 2.68996 2.00118 2.78373C2.09495 2.8775 2.22213 2.93018 2.35474 2.93018H12.8547C12.8547 2.66496 12.7494 2.41061 12.5618 2.22307C12.3743 2.03553 12.12 1.93018 11.8547 1.93018ZM2.35474 3.93018C2.17974 3.93018 2.01074 3.90018 1.85474 3.84518V12.4302C1.85474 12.828 2.01277 13.2095 2.29408 13.4908C2.57538 13.7721 2.95691 13.9302 3.35474 13.9302H12.8547C13.12 13.9302 13.3743 13.8248 13.5618 13.6373C13.7494 13.4497 13.8547 13.1954 13.8547 12.9302V4.93018C13.8547 4.66496 13.7494 4.41061 13.5618 4.22307C13.3743 4.03553 13.12 3.93018 12.8547 3.93018H2.35474Z" fill="white"/>
</svg>
