<svg width="19" height="19" viewBox="0 0 19 19" fill="none" xmlns="http://www.w3.org/2000/svg">
<path d="M16.7716 3.27386H15.1466V4.27386H16.6466V15.2739H2.64661V4.27386H4.14661V3.27386H2.52161C2.40473 3.27582 2.28938 3.30078 2.18215 3.34732C2.07491 3.39386 1.9779 3.46107 1.89664 3.54511C1.81539 3.62915 1.75149 3.72837 1.70859 3.83712C1.66568 3.94586 1.64463 4.06198 1.64661 4.17886V15.3689C1.64463 15.4857 1.66568 15.6019 1.70859 15.7106C1.75149 15.8194 1.81539 15.9186 1.89664 16.0026C1.9779 16.0867 2.07491 16.1539 2.18215 16.2004C2.28938 16.247 2.40473 16.2719 2.52161 16.2739H16.7716C16.8885 16.2719 17.0038 16.247 17.1111 16.2004C17.2183 16.1539 17.3153 16.0867 17.3966 16.0026C17.4778 15.9186 17.5417 15.8194 17.5846 15.7106C17.6275 15.6019 17.6486 15.4857 17.6466 15.3689V4.17886C17.6486 4.06198 17.6275 3.94586 17.5846 3.83712C17.5417 3.72837 17.4778 3.62915 17.3966 3.54511C17.3153 3.46107 17.2183 3.39386 17.1111 3.34732C17.0038 3.30078 16.8885 3.27582 16.7716 3.27386Z" fill="#171717"/>
<path d="M4.64673 7.27386H5.64673V8.27386H4.64673V7.27386Z" fill="#171717"/>
<path d="M7.64673 7.27386H8.64673V8.27386H7.64673V7.27386Z" fill="#171717"/>
<path d="M10.6467 7.27386H11.6467V8.27386H10.6467V7.27386Z" fill="#171717"/>
<path d="M13.6467 7.27386H14.6467V8.27386H13.6467V7.27386Z" fill="#171717"/>
<path d="M4.64673 9.77386H5.64673V10.7739H4.64673V9.77386Z" fill="#171717"/>
<path d="M7.64673 9.77386H8.64673V10.7739H7.64673V9.77386Z" fill="#171717"/>
<path d="M10.6467 9.77386H11.6467V10.7739H10.6467V9.77386Z" fill="#171717"/>
<path d="M13.6467 9.77386H14.6467V10.7739H13.6467V9.77386Z" fill="#171717"/>
<path d="M4.64673 12.2739H5.64673V13.2739H4.64673V12.2739Z" fill="#171717"/>
<path d="M7.64673 12.2739H8.64673V13.2739H7.64673V12.2739Z" fill="#171717"/>
<path d="M10.6467 12.2739H11.6467V13.2739H10.6467V12.2739Z" fill="#171717"/>
<path d="M13.6467 12.2739H14.6467V13.2739H13.6467V12.2739Z" fill="#171717"/>
<path d="M5.64673 5.27386C5.77934 5.27386 5.90651 5.22119 6.00028 5.12742C6.09405 5.03365 6.14673 4.90647 6.14673 4.77386V1.77386C6.14673 1.64126 6.09405 1.51408 6.00028 1.42031C5.90651 1.32654 5.77934 1.27386 5.64673 1.27386C5.51412 1.27386 5.38694 1.32654 5.29318 1.42031C5.19941 1.51408 5.14673 1.64126 5.14673 1.77386V4.77386C5.14673 4.90647 5.19941 5.03365 5.29318 5.12742C5.38694 5.22119 5.51412 5.27386 5.64673 5.27386Z" fill="#171717"/>
<path d="M13.6467 5.27386C13.7793 5.27386 13.9065 5.22119 14.0003 5.12742C14.0941 5.03365 14.1467 4.90647 14.1467 4.77386V1.77386C14.1467 1.64126 14.0941 1.51408 14.0003 1.42031C13.9065 1.32654 13.7793 1.27386 13.6467 1.27386C13.5141 1.27386 13.3869 1.32654 13.2932 1.42031C13.1994 1.51408 13.1467 1.64126 13.1467 1.77386V4.77386C13.1467 4.90647 13.1994 5.03365 13.2932 5.12742C13.3869 5.22119 13.5141 5.27386 13.6467 5.27386Z" fill="#171717"/>
<path d="M7.14673 3.27386H12.1467V4.27386H7.14673V3.27386Z" fill="#171717"/>
</svg>
