<svg width="20" height="20" viewBox="0 0 20 20" fill="none" xmlns="http://www.w3.org/2000/svg">
<path opacity="0.4" d="M14.18 0H5.81C2.17 0 0 2.17 0 5.81V14.18C0 17.82 2.17 19.99 5.81 19.99H14.18C17.82 19.99 19.99 17.82 19.99 14.18V5.81C19.99 2.17 17.82 0 14.18 0Z" fill="#35446F"/>
<path d="M4.65217 12.4987C4.29565 12.4987 4 12.203 4 11.8465V8.11604C4 7.75952 4.29565 7.46387 4.65217 7.46387C5.0087 7.46387 5.30435 7.75952 5.30435 8.11604V11.8465C5.30435 12.2117 5.0087 12.4987 4.65217 12.4987Z" fill="#35446F"/>
<path d="M7.25984 13.7455C6.90332 13.7455 6.60767 13.4498 6.60767 13.0933V6.8846C6.60767 6.52807 6.90332 6.23242 7.25984 6.23242C7.61636 6.23242 7.91201 6.52807 7.91201 6.8846V13.0933C7.91201 13.4585 7.61636 13.7455 7.25984 13.7455Z" fill="#35446F"/>
<path d="M9.86751 14.9922C9.51098 14.9922 9.21533 14.6965 9.21533 14.34V5.64436C9.21533 5.28784 9.51098 4.99219 9.86751 4.99219C10.224 4.99219 10.5197 5.28784 10.5197 5.64436V14.34C10.5197 14.6965 10.224 14.9922 9.86751 14.9922Z" fill="#35446F"/>
<path d="M12.4791 13.7455C12.1226 13.7455 11.8269 13.4498 11.8269 13.0933V6.8846C11.8269 6.52807 12.1226 6.23242 12.4791 6.23242C12.8356 6.23242 13.1313 6.52807 13.1313 6.8846V13.0933C13.1313 13.4585 12.8356 13.7455 12.4791 13.7455Z" fill="#35446F"/>
<path d="M15.0867 12.4987C14.7302 12.4987 14.4346 12.203 14.4346 11.8465V8.11604C14.4346 7.75952 14.7302 7.46387 15.0867 7.46387C15.4433 7.46387 15.7389 7.75952 15.7389 8.11604V11.8465C15.7389 12.2117 15.4433 12.4987 15.0867 12.4987Z" fill="#35446F"/>
</svg>
