<svg width="20" height="20" viewBox="0 0 20 20" fill="none" xmlns="http://www.w3.org/2000/svg">
<path opacity="0.4" d="M14.19 0H5.81C2.17 0 0 2.17 0 5.81V14.18C0 17.83 2.17 20 5.81 20H14.18C17.82 20 19.99 17.83 19.99 14.19V5.81C20 2.17 17.83 0 14.19 0Z" fill="#35446F"/>
<path d="M7.1001 10.0005V8.52048C7.1001 6.61048 8.4501 5.84048 10.1001 6.79048L11.3801 7.53048L12.6601 8.27048C14.3101 9.22048 14.3101 10.7805 12.6601 11.7305L11.3801 12.4705L10.1001 13.2105C8.4501 14.1605 7.1001 13.3805 7.1001 11.4805V10.0005Z" fill="#35446F"/>
</svg>
