<svg width="31" height="33" viewBox="0 0 31 33" fill="none" xmlns="http://www.w3.org/2000/svg">
<path d="M27.0486 20.1945C25.9176 19.5495 24.6416 19.3575 23.3766 19.3095C22.3246 19.2785 20.7456 18.5855 20.7456 16.6645C20.7456 15.2325 21.9016 14.0765 23.3926 14.0195C24.6576 13.9715 25.9336 13.7795 27.0636 13.1285C28.5978 12.2426 29.7174 10.7838 30.1764 9.0727C30.6355 7.36162 30.3963 5.5383 29.5116 4.00347C28.6192 2.46763 27.154 1.3485 25.4375 0.891624C23.721 0.434751 21.8934 0.677448 20.3556 1.56647C19.3377 2.15039 18.4925 2.99343 17.906 4.00989C17.3196 5.02634 17.0127 6.17996 17.0166 7.35347C17.0166 8.64947 17.4806 9.83747 18.0686 10.9525C18.5646 11.8795 18.8036 13.6135 17.1206 14.5875C15.8556 15.3115 14.2776 14.8595 13.4966 13.5985C12.8356 12.5305 12.0376 11.5355 10.9076 10.8905C7.71059 9.04147 3.61659 10.1395 1.78359 13.3275C0.899444 14.8628 0.661066 16.6864 1.12085 18.3975C1.58063 20.1086 2.70095 21.5671 4.23559 22.4525C5.25155 23.0358 6.4026 23.3427 7.57409 23.3427C8.74559 23.3427 9.89664 23.0358 10.9126 22.4525C12.0376 21.8055 12.8356 20.8115 13.4966 19.7445C14.0376 18.8735 15.4076 17.7595 17.1206 18.7535C18.3876 19.4725 18.7776 21.0725 18.0686 22.3945C17.4856 23.4875 17.0166 24.6915 17.0166 25.9875C17.0166 29.6755 20.0076 32.6595 23.6936 32.6645C25.4642 32.6637 27.1621 31.9599 28.4141 30.7079C29.6661 29.4559 30.3698 27.7581 30.3706 25.9875C30.3765 24.8148 30.0722 23.6614 29.4887 22.6442C28.9051 21.627 28.0629 20.7822 27.0476 20.1955L27.0486 20.1945Z" fill="white"/>
</svg>
