<svg width="22" height="26" viewBox="0 0 22 26" fill="none" xmlns="http://www.w3.org/2000/svg">
<path d="M7.19711 2.417C7.19711 1.45099 6.41666 0.670532 5.45064 0.670532C4.48462 0.670532 3.70417 1.45099 3.70417 2.417V10.5818L1.47742 11.2149C0.549603 11.4823 0.0147462 12.4483 0.276717 13.3761C0.538688 14.3039 1.51016 14.8388 2.43798 14.5768L3.70417 14.2112V23.3747C3.70417 24.3407 4.48462 25.1211 5.45064 25.1211H19.4224C20.3884 25.1211 21.1689 24.3407 21.1689 23.3747C21.1689 22.4087 20.3884 21.6282 19.4224 21.6282H7.19711V13.2178L14.6633 11.0839C15.5911 10.8164 16.126 9.85043 15.864 8.92261C15.602 7.9948 14.6305 7.45994 13.7027 7.72191L7.19711 9.583V2.417Z" fill="white"/>
</svg>
