<svg width="28" height="25" viewBox="0 0 28 25" fill="none" xmlns="http://www.w3.org/2000/svg">
<path d="M14.3302 0.236639C12.7472 0.190928 11.1715 0.474386 9.69613 1.07026C8.22077 1.66613 6.87573 2.56231 5.74054 3.70583C4.60534 4.84935 3.70303 6.21699 3.08695 7.7279C2.47087 9.2388 2.15352 10.8623 2.15367 12.5024C2.15367 12.8154 2.16533 13.1259 2.18867 13.4365C2.22065 13.8756 2.1265 14.3147 1.91807 14.6985C1.70964 15.0823 1.39624 15.3936 1.01733 15.5933L0 16.1311V18.6371L2.996 17.0554L3.96667 16.5431L4.92333 16.0392L22.085 6.98156L24.0135 5.96414L28 3.86043V1.35435L24.0485 3.44235L20.6768 5.22222L4.396 13.8111C4.34134 13.3759 4.31406 12.9376 4.31433 12.4988C4.31658 10.7489 4.76017 9.02993 5.60118 7.51219C6.44219 5.99446 7.65143 4.73061 9.10913 3.84583C10.5668 2.96104 12.2224 2.48602 13.9119 2.46781C15.6014 2.4496 17.2662 2.88884 18.7413 3.74201L20.671 2.72339L20.9592 2.57114C19.0271 1.11897 16.7165 0.305253 14.3302 0.236639ZM28 6.36772L5.8975 18.0233L3.969 19.0431L0 21.1396V23.6433L3.941 21.5625L7.31267 19.7826L23.611 11.1829C23.6656 11.6205 23.6929 12.0612 23.6927 12.5024C23.6916 14.2543 23.2481 15.9755 22.4063 17.4951C21.5645 19.0146 20.3536 20.2797 18.8938 21.1648C17.434 22.0498 15.7762 22.5241 14.0847 22.5404C12.3933 22.5568 10.7271 22.1147 9.25167 21.258L9.13383 21.3233L7.042 22.4277C8.80942 23.7565 10.8971 24.5534 13.0744 24.7304C15.2517 24.9073 17.4339 24.4574 19.3798 23.4304C21.3257 22.4034 22.9596 20.8392 24.101 18.9107C25.2424 16.9822 25.8468 14.7644 25.8475 12.5024C25.8475 12.1883 25.8358 11.8717 25.8125 11.5599C25.7806 11.121 25.8746 10.6821 26.0828 10.2983C26.291 9.91455 26.6041 9.60309 26.9827 9.40306L28 8.86535V6.36772Z" fill="white"/>
</svg>
