<svg width="40" height="37" viewBox="0 0 40 37" fill="none" xmlns="http://www.w3.org/2000/svg">
<path fill-rule="evenodd" clip-rule="evenodd" d="M20.4377 0.602698C20.8271 0.680342 21.1471 0.967145 21.2706 1.3493C21.4269 1.8329 21.1781 2.40627 20.7125 2.63548C20.486 2.747 20.2537 2.77735 20.0146 2.72667C19.5238 2.62264 19.156 2.17073 19.156 1.67189C19.156 1.36317 19.2551 1.12744 19.4781 0.905605C19.7359 0.649093 20.0977 0.534915 20.4377 0.602698ZM11.0892 1.61098C11.2208 1.6464 11.3368 1.70578 11.4408 1.79086C11.726 2.02421 11.8028 2.4789 11.6181 2.84143C11.5667 2.94242 11.4034 3.11364 11.302 3.17293C10.945 3.38173 10.4469 3.28168 10.2054 2.95267C9.94811 2.60218 9.97058 2.17337 10.2628 1.85779C10.4781 1.62524 10.7929 1.5312 11.0892 1.61098ZM29.791 1.64624C30.0368 1.7104 30.2417 1.87743 30.3525 2.10404C30.4143 2.23031 30.4171 2.24638 30.4171 2.46129C30.4171 2.67409 30.4137 2.69354 30.3542 2.81914C30.1436 3.26386 29.6354 3.44758 29.2085 3.23335C28.9103 3.08374 28.7441 2.80713 28.7441 2.46043C28.7441 2.10355 28.9519 1.8065 29.2925 1.67639C29.4252 1.62569 29.6582 1.61159 29.791 1.64624ZM13.5887 5.40804C14.0537 5.5121 14.4207 5.84763 14.5712 6.30633C14.6151 6.44009 14.6226 6.49702 14.6226 6.69768C14.6226 6.89872 14.6151 6.95502 14.571 7.08904C14.4982 7.30997 14.3954 7.4717 14.2227 7.63668C14.1154 7.73923 14.0273 7.80188 13.9095 7.85967C13.6667 7.97866 13.5384 8.00513 13.257 7.99431C13.057 7.98664 12.9978 7.97641 12.8643 7.92651C12.5133 7.79535 12.2744 7.57678 12.1202 7.24558C11.7896 6.53572 12.1529 5.69373 12.8963 5.4468C13.1041 5.37779 13.3835 5.36213 13.5887 5.40804ZM27.4135 5.44643C27.6372 5.49447 27.8522 5.61604 28.0313 5.79567C28.208 5.97294 28.2855 6.0961 28.3648 6.3259C28.4125 6.46405 28.4188 6.51118 28.4191 6.72703C28.4193 6.94971 28.414 6.98674 28.3599 7.14026C28.0868 7.91553 27.2151 8.25699 26.4841 7.87507C26.3284 7.79375 26.0534 7.5189 25.9718 7.36298C25.7683 6.97412 25.7556 6.53897 25.9369 6.16073C26.1583 5.69879 26.6158 5.41391 27.1298 5.4179C27.2159 5.41857 27.3436 5.4314 27.4135 5.44643ZM20.4565 6.49314C20.9558 6.57135 21.3783 6.87747 21.6018 7.32314C21.8125 7.74297 21.8196 8.25675 21.6208 8.6817C21.4177 9.11568 21.0133 9.43653 20.5454 9.53495C20.3707 9.57172 20.0674 9.57227 19.8968 9.53613C19.4065 9.4322 18.9797 9.07288 18.7906 8.60484C18.646 8.24672 18.652 7.74985 18.8052 7.40212C18.9519 7.06894 19.2478 6.76744 19.5751 6.61759C19.8137 6.50839 20.2029 6.45344 20.4565 6.49314ZM5.75995 9.08546C5.95269 9.13428 6.12211 9.22993 6.26161 9.36867C6.59948 9.7047 6.68121 10.1791 6.47656 10.6165C6.43515 10.7049 6.37489 10.7849 6.27556 10.8831C6.04466 11.1114 5.81327 11.208 5.49776 11.208C5.19194 11.208 4.95605 11.1125 4.74285 10.9025C4.54474 10.7073 4.42154 10.4078 4.42154 10.1215C4.42154 9.98802 4.48571 9.74247 4.5532 9.61772C4.62362 9.48756 4.78803 9.31043 4.91267 9.23046C5.1484 9.07918 5.49863 9.01925 5.75995 9.08546ZM35.1888 9.14528C35.5388 9.22999 35.8579 9.52992 35.9663 9.87601C36.0189 10.044 36.0232 10.3117 35.9758 10.4732C35.8656 10.8489 35.5922 11.1254 35.2223 11.2352C35.0888 11.2748 34.7984 11.2762 34.6544 11.2379C34.1809 11.1118 33.8505 10.6853 33.8516 10.2011C33.8522 9.90895 33.9499 9.66674 34.1549 9.44942C34.4194 9.1691 34.8111 9.05386 35.1888 9.14528ZM23.637 10.6606C24.7768 10.8205 25.6746 11.6715 25.9001 12.8059C25.948 13.0466 25.9481 13.5444 25.9003 13.7689C25.7818 14.3262 25.5509 14.7583 25.1657 15.1436C24.7774 15.532 24.3593 15.7555 23.7935 15.8771C23.5393 15.9318 23.0478 15.9271 22.776 15.8675C21.7673 15.6464 21.0157 14.9247 20.756 13.9279C20.6797 13.635 20.6596 13.1875 20.7089 12.8767C20.8817 11.7855 21.7062 10.9188 22.7816 10.6978C23.0085 10.6511 23.4368 10.6326 23.637 10.6606ZM17.3994 10.6597C17.7253 10.7011 18.0143 10.7917 18.3146 10.9465C18.5805 11.0836 18.7505 11.2101 18.9799 11.4418C19.4661 11.9328 19.7247 12.5629 19.7271 13.2626C19.7285 13.6873 19.6472 14.0553 19.4709 14.4219C19.3463 14.6809 19.2013 14.8813 18.9705 15.1135C18.5742 15.5123 18.1604 15.7353 17.5906 15.8575C17.3598 15.907 16.8443 15.9076 16.6146 15.8587C16.0575 15.74 15.6317 15.5133 15.2512 15.1325C14.8514 14.7325 14.6025 14.2446 14.5078 13.6753C14.4598 13.3866 14.4766 12.9399 14.5458 12.6621C14.7994 11.6451 15.5983 10.8839 16.6158 10.6898C16.8124 10.6523 17.2185 10.6367 17.3994 10.6597ZM11.2474 11.7974C11.8371 11.8955 12.3188 12.3332 12.4874 12.9241C12.5491 13.1405 12.5491 13.5021 12.4874 13.7185C12.2349 14.6038 11.3187 15.0789 10.4628 14.7683C9.52167 14.4268 9.1503 13.2617 9.72283 12.4468C10.0678 11.9559 10.6665 11.7008 11.2474 11.7974ZM29.6381 11.8331C29.9756 11.8866 30.27 12.0345 30.5027 12.2672C31.2568 13.0213 31.0544 14.2737 30.1017 14.7483C29.8847 14.8564 29.6666 14.906 29.4077 14.9062C29.1452 14.9063 28.9536 14.86 28.705 14.7362C28.5495 14.6588 28.4903 14.6147 28.343 14.4668C28.1474 14.2704 28.0341 14.0906 27.9539 13.8497C27.6296 12.8754 28.3221 11.8771 29.3578 11.8258C29.4561 11.8209 29.5823 11.8242 29.6381 11.8331ZM14.4304 16.0526C15.4906 16.2383 16.3339 17.053 16.5656 18.1154C16.6166 18.349 16.6171 18.9362 16.5665 19.1675C16.3604 20.1106 15.7059 20.8497 14.812 21.1488C14.4449 21.2717 13.9403 21.3069 13.5401 21.2376C12.7244 21.0964 12.0064 20.5607 11.6295 19.8123C11.3345 19.2265 11.2769 18.4742 11.4784 17.8365C11.6804 17.1972 12.1562 16.6315 12.7554 16.3181C12.9859 16.1976 13.2908 16.0942 13.5386 16.0526C13.7656 16.0145 14.213 16.0145 14.4304 16.0526ZM26.7971 16.0701C27.7084 16.2154 28.4593 16.7988 28.8241 17.6449C29.0308 18.1245 29.0862 18.685 28.9787 19.2122C28.7326 20.4198 27.6502 21.3044 26.4181 21.3048C25.3901 21.3052 24.488 20.7522 24.0298 19.8407C23.9412 19.6646 23.8403 19.3498 23.8032 19.1342C23.7625 18.8972 23.7622 18.4573 23.8027 18.223C23.9765 17.2174 24.7299 16.3866 25.7013 16.1296C26.0265 16.0435 26.4771 16.019 26.7971 16.0701ZM6.56479 17.3328C7.09055 17.4048 7.52249 17.7901 7.66138 18.3111C7.70599 18.4784 7.70678 18.7873 7.66304 18.9568C7.56276 19.3456 7.30241 19.6578 6.93599 19.8287C6.32291 20.1146 5.60809 19.8872 5.24988 19.2924C5.1352 19.102 5.08166 18.9014 5.07929 18.6535C5.07696 18.4094 5.10193 18.2859 5.19396 18.086C5.39817 17.6426 5.81108 17.3615 6.30982 17.3263C6.38516 17.321 6.4999 17.3239 6.56479 17.3328ZM34.3209 17.4228C34.7777 17.5453 35.1233 17.8783 35.2632 18.3306C35.3004 18.4511 35.3083 18.5194 35.3073 18.7122C35.3061 18.9169 35.2988 18.9681 35.2501 19.1114C35.1116 19.5193 34.7924 19.8297 34.3796 19.958C34.2578 19.9959 34.1912 20.0035 33.9882 20.0027C33.7756 20.0019 33.7227 19.9948 33.5829 19.9483C33.2636 19.842 32.9769 19.5941 32.8324 19.2992C32.7239 19.0778 32.6897 18.9282 32.6916 18.6829C32.6943 18.3215 32.8168 18.0332 33.078 17.773C33.3453 17.5067 33.6326 17.3902 34.0158 17.3927C34.1244 17.3934 34.2617 17.407 34.3209 17.4228ZM1.63132 17.7832C1.77543 17.8083 1.96637 17.9113 2.07991 18.0252C2.48746 18.4338 2.36794 19.1226 1.84459 19.3813C1.71726 19.4442 1.67577 19.4547 1.52675 19.4619C1.24266 19.4754 1.04261 19.395 0.850998 19.1902C0.555408 18.8742 0.556702 18.3734 0.853973 18.0547C0.905849 17.999 0.982574 17.9318 1.02449 17.9053C1.18948 17.8007 1.44126 17.7501 1.63132 17.7832ZM39.1951 17.9049C39.4227 17.9845 39.582 18.1362 39.6978 18.3839C39.7445 18.4838 39.7506 18.5197 39.7497 18.6926C39.7485 18.92 39.7105 19.0405 39.5843 19.2167C39.3229 19.5817 38.7733 19.6617 38.4088 19.3878C38.2104 19.2387 38.085 19.0101 38.0639 18.759C38.0354 18.4182 38.2351 18.0874 38.562 17.9341C38.6762 17.8805 38.7196 17.8712 38.8801 17.8659C39.0344 17.8609 39.088 17.8675 39.1951 17.9049ZM17.4732 21.4315C18.4769 21.5983 19.294 22.301 19.5933 23.2548C19.7071 23.6178 19.7402 24.1174 19.6748 24.4847C19.4874 25.5357 18.6924 26.3672 17.6417 26.6111C17.3939 26.6686 16.9065 26.6825 16.6567 26.6392C16.1103 26.5445 15.5988 26.2807 15.2124 25.8942C14.8416 25.5234 14.5989 25.0688 14.4859 24.5336C14.4371 24.3021 14.4371 23.7867 14.4859 23.5552C14.5977 23.0256 14.8322 22.5794 15.1957 22.2048C15.5711 21.8179 16.0145 21.5723 16.5437 21.4582C16.7791 21.4074 17.2473 21.394 17.4732 21.4315ZM23.7446 21.4528C24.5919 21.6109 25.2748 22.1272 25.6585 22.8997C26.0795 23.7474 25.9929 24.7944 25.4372 25.5744C25.2994 25.7678 25.0013 26.0654 24.8067 26.2038C24.2039 26.6324 23.3838 26.7854 22.6488 26.6063C21.7799 26.3946 21.0784 25.7429 20.7896 24.8791C20.697 24.6021 20.6607 24.3745 20.6594 24.064C20.6561 23.2617 20.994 22.5268 21.5947 22.03C21.9144 21.7655 22.2321 21.6031 22.639 21.496C22.8429 21.4424 22.898 21.4362 23.226 21.4302C23.4887 21.4254 23.631 21.4316 23.7446 21.4528ZM11.3481 22.4607C11.8566 22.5939 12.2551 22.9642 12.4262 23.4627C12.7572 24.4268 12.1043 25.4052 11.0648 25.5029C10.8024 25.5275 10.4355 25.4428 10.1948 25.3021C10.0375 25.2101 9.80278 24.9909 9.70054 24.8404C9.37983 24.3682 9.3367 23.7774 9.58605 23.2715C9.78321 22.8715 10.1689 22.565 10.6072 22.4599C10.8266 22.4073 11.1453 22.4077 11.3481 22.4607ZM29.6834 22.4875C30.3024 22.6185 30.7809 23.0921 30.9048 23.6962C31.1072 24.6838 30.3191 25.599 29.3125 25.5452C28.6366 25.5092 28.0879 25.0656 27.8987 24.4025C27.837 24.186 27.837 23.8245 27.8987 23.6081C28.0518 23.0715 28.451 22.6695 28.9823 22.5171C29.1665 22.4643 29.506 22.4499 29.6834 22.4875ZM5.76193 26.0964C6.21525 26.2267 6.53555 26.6533 6.53456 27.1255C6.53395 27.4176 6.43619 27.6598 6.23118 27.8772C5.97604 28.1476 5.60284 28.2657 5.23945 28.191C5.07729 28.1576 4.83534 28.0324 4.7207 27.9224C4.49318 27.7042 4.38036 27.4478 4.37846 27.1449C4.37539 26.6489 4.68501 26.2335 5.16378 26.0914C5.30563 26.0493 5.60678 26.0518 5.76193 26.0964ZM35.1797 26.1495C35.5356 26.2452 35.8378 26.5539 35.9357 26.9217C35.9721 27.0587 35.9721 27.3309 35.9357 27.4678C35.8357 27.8434 35.5373 28.1421 35.1621 28.2419C35.0219 28.2793 34.7505 28.2788 34.6054 28.241C34.2476 28.1478 33.9378 27.8381 33.841 27.4769C33.7969 27.3121 33.8009 27.0396 33.8498 26.8814C33.96 26.5246 34.2528 26.2439 34.6153 26.1474C34.7504 26.1115 35.0423 26.1125 35.1797 26.1495ZM20.6186 27.7929C21.1014 27.8987 21.5216 28.2547 21.7095 28.7171C21.9011 29.1888 21.828 29.813 21.5347 30.2082C21.2017 30.6569 20.6339 30.9056 20.1029 30.8353C19.3634 30.7373 18.8318 30.2063 18.7431 29.477C18.6841 28.9918 18.8567 28.523 19.2204 28.1809C19.4386 27.9756 19.6752 27.8499 19.9546 27.7907C20.1172 27.7562 20.4562 27.7574 20.6186 27.7929ZM13.5109 29.3071C13.976 29.4071 14.3466 29.7346 14.5062 30.1863C14.5596 30.3375 14.5658 30.3793 14.5665 30.5898C14.5672 30.7823 14.5591 30.851 14.5217 30.9713C14.4521 31.1953 14.3547 31.3537 14.1777 31.5309C13.9183 31.7906 13.6272 31.9106 13.2563 31.9106C13.0183 31.9106 12.8809 31.8783 12.6595 31.7704C12.5283 31.7065 12.4598 31.6559 12.3349 31.5309C12.0584 31.254 11.9455 30.9841 11.9454 30.5995C11.9453 30.4035 11.9527 30.352 12.0026 30.1998C12.1344 29.7975 12.4405 29.4929 12.8533 29.3534C12.9688 29.3143 13.05 29.3017 13.2172 29.2967C13.3356 29.2932 13.4678 29.2979 13.5109 29.3071ZM27.4035 29.3592C28.0032 29.5042 28.4293 30.096 28.3849 30.7222C28.3467 31.2599 28.0003 31.7054 27.482 31.8835C27.344 31.9309 27.2965 31.9373 27.0809 31.9374C26.868 31.9375 26.8159 31.9308 26.6797 31.8854C26.2581 31.7451 25.9535 31.4402 25.8151 31.0203C25.771 30.8862 25.7635 30.8299 25.7635 30.6289C25.7635 30.4279 25.771 30.3716 25.8151 30.2375C25.8879 30.0166 25.9908 29.8549 26.1634 29.6899C26.3269 29.5337 26.5467 29.4105 26.7572 29.3572C26.9042 29.32 27.2455 29.321 27.4035 29.3592ZM11.062 34.044C11.4503 34.1813 11.6592 34.4979 11.6384 34.9175C11.6313 35.0604 11.6191 35.1126 11.5681 35.219C11.4089 35.5505 11.0265 35.7533 10.6745 35.6931C10.3458 35.6367 10.1041 35.4356 9.99734 35.1295C9.96416 35.0343 9.9577 34.9769 9.96329 34.8262C9.96922 34.6665 9.97899 34.6215 10.0325 34.5074C10.1202 34.3203 10.2747 34.1641 10.4537 34.0813C10.6399 33.9951 10.882 33.9803 11.062 34.044ZM29.7877 34.0829C30.5112 34.3387 30.5722 35.313 29.8859 35.6509C29.758 35.7138 29.7436 35.7165 29.5262 35.7165C29.3039 35.7165 29.2971 35.7152 29.1509 35.6429C28.8987 35.5183 28.7271 35.2891 28.68 35.0138C28.6192 34.659 28.8127 34.294 29.1498 34.1274C29.2845 34.0608 29.3139 34.0539 29.4855 34.0485C29.6363 34.0437 29.6962 34.0506 29.7877 34.0829ZM20.4181 34.5845C20.8443 34.6732 21.1448 34.9222 21.2886 35.3056C21.343 35.4507 21.3622 35.7277 21.3289 35.888C21.2325 36.3525 20.7547 36.7421 20.2798 36.7435C19.8755 36.7447 19.4762 36.5027 19.3035 36.1518C19.1425 35.8247 19.143 35.5007 19.305 35.1753C19.4402 34.9038 19.7096 34.687 20.0061 34.6112C20.1471 34.5751 20.3195 34.564 20.4181 34.5845Z" fill="white"/>
</svg>
