<svg width="31" height="31" viewBox="0 0 31 31" fill="none" xmlns="http://www.w3.org/2000/svg">
<path d="M11.7768 4.34346C9.82613 4.99883 8.07676 6.14481 6.69675 7.67133C5.31675 9.19785 4.3525 11.0536 3.89663 13.0603C3.44076 15.067 3.50859 17.1572 4.09362 19.1301C4.67864 21.1031 5.76119 22.8924 7.23727 24.3262C8.71335 25.7601 10.5333 26.7902 12.5224 27.3177C14.5115 27.8452 16.6028 27.8523 18.5954 27.3384C20.588 26.8245 22.415 25.8067 23.9008 24.383C25.3866 22.9593 26.4814 21.1774 27.0798 19.2085C21.9798 21.3985 16.2078 22.1785 9.76232 21.556C8.69582 15.367 9.36632 9.63096 11.7768 4.34346ZM15.4488 3.72246C14.4515 5.50624 13.6748 7.40467 13.1358 9.37597C15.4566 9.42223 17.6691 10.3664 19.3083 12.01C20.8588 13.5561 21.7898 15.6161 21.9258 17.8015C23.9208 17.29 25.8093 16.5715 27.5958 15.652C27.5878 14.0693 27.2666 12.5038 26.6506 11.0458C26.0347 9.58787 25.1362 8.26629 24.0069 7.15728C22.8777 6.04828 21.5401 5.1738 20.0713 4.58428C18.6024 3.99476 17.0314 3.70185 15.4488 3.72246ZM4.98932 26.329C-0.868183 20.4715 -0.868183 10.9735 4.98932 5.11596C10.8468 -0.741536 20.3448 -0.741536 26.2023 5.11596C32.0598 10.9735 32.0598 20.4715 26.2023 26.329C20.3448 32.1865 10.8468 32.1865 4.98932 26.329ZM12.5193 12.3895C12.2305 14.492 12.1923 16.6214 12.4053 18.733C14.5908 18.8293 16.7806 18.7188 18.9453 18.403C18.9501 17.6099 18.7971 16.8238 18.4953 16.0904C18.1935 15.357 17.7489 14.691 17.1873 14.131C16.58 13.5224 15.8487 13.0519 15.0431 12.7514C14.2376 12.4509 13.3768 12.3274 12.5193 12.3895Z" fill="white"/>
</svg>
