<svg width="24" height="33" viewBox="0 0 24 33" fill="none" xmlns="http://www.w3.org/2000/svg">
<path d="M10.7968 0.413452L0.768066 16.1047L12.1106 21.6797L23.2731 16.0997L13.4218 0.413452H10.7968ZM10.8556 4.9597V10.3985L5.96307 12.6185L10.8556 4.9597ZM13.3556 5.0097L18.1281 12.6097L13.3556 10.4197V5.01095V5.0097ZM10.8556 13.1435V18.2772L5.42557 15.606L10.8556 13.1435ZM13.3556 13.1722L18.6631 15.6097L13.3556 18.261V13.171V13.1722ZM0.855567 18.5535V21.7035L10.7656 32.7572H13.4456L23.3556 21.7022V18.5522L12.1056 24.3197L0.855567 18.5535ZM6.50682 24.261L10.8556 26.4897V29.1097L6.50682 24.261ZM17.7043 24.261L13.3556 29.1097V26.4897L17.7043 24.261Z" fill="white"/>
</svg>
