<svg width="21" height="28" viewBox="0 0 21 28" fill="none" xmlns="http://www.w3.org/2000/svg">
<path d="M5.06348 27.1635V24.1635H0.563477V21.1635H3.56348V6.16345H0.563477V3.16345H5.06348V0.163452H8.06348V3.16345H11.0635V0.163452H14.0635V3.35095C15.3635 3.70095 16.4385 4.40695 17.2885 5.46895C18.1385 6.53195 18.5635 7.76345 18.5635 9.16345C18.5635 9.88845 18.4385 10.582 18.1885 11.244C17.9385 11.907 17.5885 12.501 17.1385 13.026C18.0135 13.551 18.7195 14.2635 19.2565 15.1635C19.7945 16.0635 20.0635 17.0635 20.0635 18.1635C20.0635 19.8135 19.476 21.226 18.301 22.401C17.126 23.576 15.7135 24.1635 14.0635 24.1635V27.1635H11.0635V24.1635H8.06348V27.1635H5.06348ZM6.56348 12.1635H12.5635C13.3885 12.1635 14.095 11.8695 14.683 11.2815C15.27 10.6945 15.5635 9.98845 15.5635 9.16345C15.5635 8.33845 15.27 7.63195 14.683 7.04395C14.095 6.45695 13.3885 6.16345 12.5635 6.16345H6.56348V12.1635ZM6.56348 21.1635H14.0635C14.8885 21.1635 15.595 20.87 16.183 20.283C16.77 19.695 17.0635 18.9885 17.0635 18.1635C17.0635 17.3385 16.77 16.632 16.183 16.044C15.595 15.457 14.8885 15.1635 14.0635 15.1635H6.56348V21.1635Z" fill="white"/>
</svg>
