<svg width="17" height="15" viewBox="0 0 17 15" fill="none" xmlns="http://www.w3.org/2000/svg">
<path d="M0.663818 9.70593C0.796427 9.70593 0.923604 9.75861 1.01737 9.85238C1.11114 9.94615 1.16382 10.0733 1.16382 10.2059V12.7059C1.16382 12.9711 1.26918 13.2255 1.45671 13.413C1.64425 13.6006 1.8986 13.7059 2.16382 13.7059H14.1638C14.429 13.7059 14.6834 13.6006 14.8709 13.413C15.0585 13.2255 15.1638 12.9711 15.1638 12.7059V10.2059C15.1638 10.0733 15.2165 9.94615 15.3103 9.85238C15.404 9.75861 15.5312 9.70593 15.6638 9.70593C15.7964 9.70593 15.9236 9.75861 16.0174 9.85238C16.1111 9.94615 16.1638 10.0733 16.1638 10.2059V12.7059C16.1638 13.2364 15.9531 13.7451 15.578 14.1201C15.203 14.4952 14.6943 14.7059 14.1638 14.7059H2.16382C1.63339 14.7059 1.12468 14.4952 0.749605 14.1201C0.374532 13.7451 0.163818 13.2364 0.163818 12.7059V10.2059C0.163818 10.0733 0.216497 9.94615 0.310265 9.85238C0.404033 9.75861 0.53121 9.70593 0.663818 9.70593Z" fill="#234CE3"/>
<path d="M7.80972 11.6599C7.85616 11.7065 7.91134 11.7434 7.97208 11.7686C8.03283 11.7938 8.09795 11.8068 8.16372 11.8068C8.22949 11.8068 8.29461 11.7938 8.35535 11.7686C8.4161 11.7434 8.47127 11.7065 8.51772 11.6599L11.5177 8.65991C11.6116 8.56602 11.6643 8.43868 11.6643 8.30591C11.6643 8.17313 11.6116 8.04579 11.5177 7.95191C11.4238 7.85802 11.2965 7.80528 11.1637 7.80528C11.0309 7.80528 10.9036 7.85802 10.8097 7.95191L8.66372 10.0989V1.30591C8.66372 1.1733 8.61104 1.04612 8.51727 0.952355C8.4235 0.858587 8.29633 0.805908 8.16372 0.805908C8.03111 0.805908 7.90393 0.858587 7.81016 0.952355C7.7164 1.04612 7.66372 1.1733 7.66372 1.30591V10.0989L5.51772 7.95191C5.42383 7.85802 5.29649 7.80528 5.16372 7.80528C5.03094 7.80528 4.9036 7.85802 4.80972 7.95191C4.71583 8.04579 4.66309 8.17313 4.66309 8.30591C4.66309 8.43868 4.71583 8.56602 4.80972 8.65991L7.80972 11.6599Z" fill="#234CE3"/>
</svg>
