<svg width="12" height="12" viewBox="0 0 12 12" fill="none" xmlns="http://www.w3.org/2000/svg">
<path d="M5.97537 5.55083C5.08295 5.25503 4.65177 5.06952 4.65177 4.59824C4.65177 4.08685 5.20829 3.90135 5.55924 3.90135C6.21603 3.90135 6.45668 4.3977 6.51183 4.57317L7.30399 4.23726C7.22878 4.01165 6.89287 3.27464 6.03052 3.11421V2.49252H5.0278V3.12423C3.78441 3.405 3.7794 4.55813 3.7794 4.60827C3.7794 5.74637 4.90747 6.06724 5.45897 6.26778C6.25112 6.54855 6.60208 6.80424 6.60208 7.28555C6.60208 7.85209 6.07565 8.09275 5.60938 8.09275C4.6969 8.09275 4.43619 7.1552 4.40611 7.0449L3.57384 7.38081C3.8897 8.4788 4.71695 8.7746 5.0278 8.86485V9.51161H6.03052V8.88992C6.23107 8.84479 7.48448 8.59411 7.48448 7.27552C7.48448 6.57863 7.17865 5.96697 5.97537 5.55083ZM1.01689 10.5143H0.0141602V7.50615H3.02234V8.50888H1.77896C2.58616 9.71716 3.96491 10.5143 5.52916 10.5143C6.72589 10.5143 7.8736 10.0389 8.71982 9.19272C9.56603 8.3465 10.0414 7.19879 10.0414 6.00206H11.0442C11.0442 9.05035 8.57745 11.5171 5.52916 11.5171C3.66409 11.5171 2.0146 10.5895 1.01689 9.17569V10.5143ZM0.0141602 6.00206C0.0141602 2.95377 2.48087 0.487061 5.52916 0.487061C7.39423 0.487061 9.04372 1.41458 10.0414 2.82843V1.48979H11.0442V4.49797H8.03598V3.49524H9.27936C8.47216 2.28696 7.09341 1.48979 5.52916 1.48979C4.33243 1.48979 3.18472 1.96519 2.3385 2.8114C1.49229 3.65762 1.01689 4.80533 1.01689 6.00206H0.0141602Z" fill="white"/>
</svg>
