<svg width="12" height="14" viewBox="0 0 12 14" fill="none" xmlns="http://www.w3.org/2000/svg">
<path d="M6.26278 0.189941C4.42478 0.189941 2.92944 1.68527 2.92944 3.52327V4.85661H2.26278C1.52744 4.85661 0.929443 5.45461 0.929443 6.18994V12.1899C0.929443 12.9253 1.52744 13.5233 2.26278 13.5233H10.2628C10.9981 13.5233 11.5961 12.9253 11.5961 12.1899V6.18994C11.5961 5.45461 10.9981 4.85661 10.2628 4.85661H9.59611V3.52327C9.59611 1.68527 8.10078 0.189941 6.26278 0.189941ZM4.26278 3.52327C4.26278 2.42061 5.16011 1.52327 6.26278 1.52327C7.36544 1.52327 8.26278 2.42061 8.26278 3.52327V4.85661H4.26278V3.52327ZM10.2641 12.1899H6.92944V10.6713C7.32611 10.4399 7.59611 10.0146 7.59611 9.52328C7.59611 8.78794 6.99811 8.18994 6.26278 8.18994C5.52744 8.18994 4.92944 8.78794 4.92944 9.52328C4.92944 10.0139 5.19944 10.4399 5.59611 10.6713V12.1899H2.26278V6.18994H10.2628L10.2641 12.1899Z" fill="#FE3F51"/>
</svg>
