<svg width="17" height="12" viewBox="0 0 17 12" fill="none" xmlns="http://www.w3.org/2000/svg">
<path d="M15.1412 0.163574H1.94119C1.64945 0.163574 1.36966 0.279467 1.16337 0.485757C0.957079 0.692047 0.841187 0.971836 0.841187 1.26357V10.0636C0.841187 10.3553 0.957079 10.6351 1.16337 10.8414C1.36966 11.0477 1.64945 11.1636 1.94119 11.1636H15.1412C15.4329 11.1636 15.7127 11.0477 15.919 10.8414C16.1253 10.6351 16.2412 10.3553 16.2412 10.0636V1.26357C16.2412 0.971836 16.1253 0.692047 15.919 0.485757C15.7127 0.279467 15.4329 0.163574 15.1412 0.163574ZM13.9312 1.26357L8.54119 4.99257L3.15119 1.26357H13.9312ZM1.94119 10.0636V1.76407L8.22769 6.11457C8.31975 6.17844 8.42913 6.21267 8.54119 6.21267C8.65324 6.21267 8.76262 6.17844 8.85469 6.11457L15.1412 1.76407V10.0636H1.94119Z" fill="#234CE3"/>
</svg>
