<svg width="15" height="15" viewBox="0 0 15 15" fill="none" xmlns="http://www.w3.org/2000/svg">
<mask id="path-1-inside-1_135_646" fill="white">
<path d="M1.24643 1.52182H9.21786V6.40432H10.2143V1.52182C10.2143 1.25755 10.1093 1.0041 9.92244 0.817238C9.73557 0.630371 9.48213 0.525391 9.21786 0.525391H1.24643C0.982159 0.525391 0.728714 0.630371 0.541847 0.817238C0.354981 1.0041 0.25 1.25755 0.25 1.52182V13.479C0.25 13.7432 0.354981 13.9967 0.541847 14.1835C0.728714 14.3704 0.982159 14.4754 1.24643 14.4754H9.21786C9.48213 14.4754 9.73557 14.3704 9.92244 14.1835C10.1093 13.9967 10.2143 13.7432 10.2143 13.479H1.24643V1.52182Z"/>
</mask>
<path d="M1.24643 1.52182V0.521819H0.246429V1.52182H1.24643ZM9.21786 1.52182H10.2179V0.521819H9.21786V1.52182ZM9.21786 6.40432H8.21786V7.40432H9.21786V6.40432ZM10.2143 6.40432V7.40432H11.2143V6.40432H10.2143ZM9.21786 0.525391V-0.474609V0.525391ZM1.24643 0.525391V-0.474609V0.525391ZM0.25 1.52182H-0.75H0.25ZM0.25 13.479H-0.75H0.25ZM10.2143 13.479H11.2143V12.479H10.2143V13.479ZM1.24643 13.479H0.246429V14.479H1.24643V13.479ZM1.24643 2.52182H9.21786V0.521819H1.24643V2.52182ZM8.21786 1.52182V6.40432H10.2179V1.52182H8.21786ZM9.21786 7.40432H10.2143V5.40432H9.21786V7.40432ZM11.2143 6.40432V1.52182H9.21429V6.40432H11.2143ZM11.2143 1.52182C11.2143 0.992333 11.0039 0.484534 10.6295 0.110131L9.21533 1.52434C9.21466 1.52368 9.21429 1.52277 9.21429 1.52182H11.2143ZM10.6295 0.110131C10.2551 -0.264272 9.74734 -0.474609 9.21786 -0.474609V1.52539C9.21691 1.52539 9.216 1.52501 9.21533 1.52434L10.6295 0.110131ZM9.21786 -0.474609H1.24643V1.52539H9.21786V-0.474609ZM1.24643 -0.474609C0.716943 -0.474609 0.209143 -0.264272 -0.16526 0.110131L1.24895 1.52434C1.24828 1.52501 1.24738 1.52539 1.24643 1.52539V-0.474609ZM-0.16526 0.110131C-0.539663 0.484534 -0.75 0.992334 -0.75 1.52182H1.25C1.25 1.52277 1.24962 1.52367 1.24895 1.52434L-0.16526 0.110131ZM-0.75 1.52182V13.479H1.25V1.52182H-0.75ZM-0.75 13.479C-0.75 14.0084 -0.539663 14.5162 -0.16526 14.8906L1.24895 13.4764C1.24962 13.4771 1.25 13.478 1.25 13.479H-0.75ZM-0.16526 14.8906C0.209143 15.2651 0.716942 15.4754 1.24643 15.4754V13.4754C1.24738 13.4754 1.24828 13.4758 1.24895 13.4764L-0.16526 14.8906ZM1.24643 15.4754H9.21786V13.4754H1.24643V15.4754ZM9.21786 15.4754C9.74734 15.4754 10.2551 15.2651 10.6295 14.8906L9.21533 13.4764C9.216 13.4758 9.21691 13.4754 9.21786 13.4754V15.4754ZM10.6295 14.8906C11.0039 14.5162 11.2143 14.0084 11.2143 13.479H9.21429C9.21429 13.478 9.21466 13.4771 9.21533 13.4764L10.6295 14.8906ZM10.2143 12.479H1.24643V14.479H10.2143V12.479ZM2.24643 13.479V1.52182H0.246429V13.479H2.24643Z" fill="white" mask="url(#path-1-inside-1_135_646)"/>
<path d="M13.9879 10.0262L11.743 12.2558L13.1273 10.8387L13.9536 9.99285H13.9542L13.9879 10.0262ZM11.1118 7.16741L11.4333 7.48885L11.1118 7.16741Z" stroke="white"/>
</svg>
