<svg width="11" height="15" viewBox="0 0 11 15" fill="none" xmlns="http://www.w3.org/2000/svg">
<path d="M5.54126 1.66357C6.03571 1.66357 6.51906 1.8102 6.93019 2.0849C7.34131 2.3596 7.66174 2.75005 7.85096 3.20687C8.04018 3.66368 8.08969 4.16635 7.99322 4.6513C7.89676 5.13625 7.65866 5.58171 7.30903 5.93134C6.9594 6.28097 6.51394 6.51907 6.02899 6.61554C5.54403 6.712 5.04137 6.66249 4.58455 6.47327C4.12774 6.28405 3.73729 5.96362 3.46259 5.5525C3.18788 5.14138 3.04126 4.65803 3.04126 4.16357C3.04126 3.50053 3.30465 2.86465 3.77349 2.39581C4.24233 1.92697 4.87822 1.66357 5.54126 1.66357ZM5.54126 0.663574C4.84903 0.663574 4.17234 0.868846 3.59676 1.25343C3.02119 1.63802 2.57259 2.18464 2.30768 2.82418C2.04277 3.46372 1.97346 4.16746 2.10851 4.84639C2.24356 5.52532 2.5769 6.14896 3.06639 6.63845C3.55587 7.12793 4.17951 7.46127 4.85844 7.59632C5.53738 7.73137 6.24111 7.66206 6.88065 7.39715C7.52019 7.13225 8.06682 6.68364 8.4514 6.10807C8.83599 5.5325 9.04126 4.85581 9.04126 4.16357C9.04126 3.23532 8.67251 2.34508 8.01613 1.6887C7.35976 1.03232 6.46952 0.663574 5.54126 0.663574ZM10.5413 14.6636H9.54126V12.1636C9.54126 11.8353 9.4766 11.5102 9.35096 11.2069C9.22532 10.9036 9.04117 10.628 8.80903 10.3958C8.57688 10.1637 8.30128 9.97951 7.99797 9.85388C7.69465 9.72824 7.36956 9.66357 7.04126 9.66357H4.04126C3.37822 9.66357 2.74233 9.92697 2.27349 10.3958C1.80465 10.8646 1.54126 11.5005 1.54126 12.1636V14.6636H0.54126V12.1636C0.54126 11.2353 0.910009 10.3451 1.56639 9.6887C2.22276 9.03232 3.113 8.66357 4.04126 8.66357H7.04126C7.96952 8.66357 8.85976 9.03232 9.51613 9.6887C10.1725 10.3451 10.5413 11.2353 10.5413 12.1636V14.6636Z" fill="#234CE3"/>
</svg>
