<svg width="15" height="14" viewBox="0 0 15 14" fill="none" xmlns="http://www.w3.org/2000/svg">
<path d="M12.7889 13.8288H12.6998C2.39284 13.2361 0.92941 4.53948 0.724845 1.88538C0.708362 1.67902 0.732759 1.47144 0.796639 1.27452C0.860519 1.07761 0.962626 0.895235 1.09711 0.73785C1.23159 0.580465 1.39581 0.451163 1.58035 0.357352C1.76489 0.263542 1.96613 0.207067 2.17253 0.191163H5.06267C5.27277 0.190959 5.4781 0.253848 5.65204 0.371684C5.82599 0.48952 5.96055 0.656873 6.03829 0.852065L6.83557 2.81379C6.91233 3.00448 6.93138 3.21352 6.89035 3.41494C6.84932 3.61637 6.75002 3.8013 6.60477 3.94676L5.48754 5.07449C5.66205 6.06624 6.13699 6.98044 6.8481 7.69343C7.55921 8.40641 8.47216 8.88376 9.46344 9.06089L10.6017 7.93316C10.7493 7.78952 10.936 7.69253 11.1384 7.65429C11.3408 7.61604 11.55 7.63824 11.7399 7.7181L13.7173 8.51014C13.9096 8.59033 14.0736 8.72594 14.1885 8.89968C14.3034 9.07343 14.364 9.27745 14.3625 9.48575V12.2552C14.3625 12.6726 14.1967 13.0728 13.9016 13.3679C13.6065 13.663 13.2063 13.8288 12.7889 13.8288ZM2.29842 1.24021C2.15931 1.24021 2.02589 1.29548 1.92753 1.39384C1.82916 1.49221 1.7739 1.62563 1.7739 1.76474V1.8067C2.01518 4.91189 3.56253 12.2552 12.7575 12.7798C12.8264 12.784 12.8954 12.7746 12.9607 12.7521C13.026 12.7297 13.0862 12.6945 13.1378 12.6487C13.1895 12.6029 13.2316 12.5473 13.2617 12.4852C13.2919 12.4231 13.3094 12.3556 13.3135 12.2867V9.48575L11.336 8.69372L9.83061 10.1886L9.57883 10.1571C5.01546 9.58541 4.39652 5.02204 4.39652 4.97483L4.36505 4.72306L5.8547 3.21767L5.06791 1.24021H2.29842Z" fill="#234CE3"/>
</svg>
