<svg width="22" height="22" viewBox="0 0 22 22" fill="none" xmlns="http://www.w3.org/2000/svg">
<path d="M6.56934 11.3069C6.56934 13.7048 8.47536 15.6108 10.8733 15.6108C13.2712 15.6108 15.1772 13.7048 15.1772 11.3069C15.1772 8.90896 13.2712 7.00293 10.8733 7.00293C8.47536 7.00293 6.56934 8.90896 6.56934 11.3069ZM13.9475 11.3069C13.9475 13.0284 12.5948 14.3811 10.8733 14.3811C9.1517 14.3811 7.79903 13.0284 7.79903 11.3069C7.79903 9.58529 9.1517 8.23263 10.8733 8.23263C12.5948 8.23263 13.9475 9.58529 13.9475 11.3069Z" fill="#171717"/>
<path d="M19.9114 9.27781L18.1899 8.72444L18.1284 8.53999C17.6365 8.53999 17.1446 8.41702 16.6527 8.29405C16.8372 8.66296 17.0217 9.09335 17.1446 9.46226L17.2061 9.76968L19.4196 10.446V12.1676L17.2061 12.8439L17.1446 13.1513L16.5913 14.4425L16.4068 14.75L17.5135 16.779L16.2838 18.0086L14.2548 16.9019L13.9474 17.0864C13.517 17.3323 13.0866 17.5168 12.6562 17.6397L12.3488 17.7012L11.6725 19.9147H9.9509L9.27457 17.7012L8.96714 17.6397L7.67596 17.0864L7.36854 16.9019L5.33954 18.0086L4.10985 16.779L5.21657 14.75L5.03212 14.4425C4.78618 14.0121 4.60172 13.5817 4.47875 13.1513L4.41727 12.8439L2.20382 12.1676V10.446L4.2943 9.83117L4.41727 9.52375C4.54024 9.03187 4.72469 8.60147 4.97063 8.17108L5.15509 7.86366L4.10985 5.83466L5.33954 4.60496L7.30705 5.71169L7.61448 5.52723C8.04487 5.2813 8.47527 5.09684 8.96714 4.97387L9.27457 4.8509L9.9509 2.69893H11.6725L12.3488 4.8509L12.6562 4.97387C13.0866 5.09684 13.4555 5.2813 13.8244 5.46575C13.64 4.97387 13.5785 4.48199 13.5785 3.92863L13.3326 3.80566L12.7792 2.08409C12.6562 1.77666 12.2873 1.46924 11.8569 1.46924H9.76645C9.33605 1.46924 8.96714 1.77666 8.90566 2.20706L8.3523 3.92863C7.98339 3.99011 7.67596 4.11308 7.36854 4.29754L5.76993 3.43675C5.40103 3.2523 4.90915 3.31378 4.60172 3.62121L3.12609 5.09684C2.81866 5.40426 2.75718 5.89614 2.94163 6.26505L3.74094 7.80217C3.61797 8.1096 3.495 8.4785 3.37203 8.78593L1.65045 9.33929C1.28154 9.46226 0.974121 9.83117 0.974121 10.2616V12.352C0.974121 12.7824 1.28155 13.1513 1.71194 13.2743L3.43351 13.8277L3.80242 14.75L2.94163 16.3486C2.75718 16.7175 2.81866 17.2093 3.12609 17.5168L4.60172 18.9924C4.90915 19.2998 5.40103 19.3613 5.76993 19.1769L7.36854 18.3161L8.29081 18.685L8.84417 20.468C8.96714 20.8369 9.33605 21.1444 9.76645 21.1444H11.8569C12.2873 21.1444 12.6562 20.8369 12.7792 20.468L13.3326 18.685L14.2548 18.3161L15.8534 19.1769C16.2223 19.3613 16.7142 19.2998 17.0217 18.9924L18.4973 17.5168C18.8047 17.2093 18.8662 16.7175 18.6817 16.3486L17.821 14.75L18.1899 13.8277L19.9729 13.2743C20.3418 13.1513 20.6493 12.7824 20.6493 12.352V10.2616C20.6493 9.83117 20.3418 9.40078 19.9114 9.27781Z" fill="#171717"/>
<path d="M18.19 7.00297C19.8878 7.00297 21.2642 5.62659 21.2642 3.92873C21.2642 2.23088 19.8878 0.854492 18.19 0.854492C16.4921 0.854492 15.1157 2.23088 15.1157 3.92873C15.1157 5.62659 16.4921 7.00297 18.19 7.00297Z" fill="#171717"/>
</svg>
