<svg width="22" height="21" viewBox="0 0 22 21" fill="none" xmlns="http://www.w3.org/2000/svg">
<path d="M11.2844 9.60235C10.5781 9.59491 9.88988 9.3787 9.30628 8.98093C8.72267 8.58316 8.2698 8.02162 8.00467 7.367C7.73955 6.71239 7.67402 5.99396 7.81635 5.30219C7.95867 4.61041 8.30249 3.9762 8.8045 3.47942C9.30652 2.98263 9.94429 2.64548 10.6375 2.5104C11.3307 2.37533 12.0484 2.44837 12.7002 2.72034C13.3521 2.99231 13.9088 3.45103 14.3005 4.03877C14.6921 4.62651 14.9011 5.31698 14.9011 6.02324C14.8945 6.97696 14.5101 7.88917 13.8322 8.56003C13.1543 9.23088 12.2381 9.60569 11.2844 9.60235ZM11.2844 3.69997C10.8265 3.70739 10.3811 3.84993 10.004 4.10969C9.62696 4.36945 9.33505 4.73483 9.16497 5.15996C8.99489 5.58508 8.95422 6.05098 9.04808 6.49915C9.14193 6.94731 9.36612 7.35774 9.69249 7.6789C10.0189 8.00006 10.4328 8.21762 10.8825 8.30425C11.3321 8.39089 11.7973 8.34273 12.2196 8.16583C12.6419 7.98894 13.0026 7.69119 13.2562 7.30999C13.5099 6.92878 13.6452 6.48113 13.6453 6.02324C13.6387 5.40259 13.3866 4.80981 12.9442 4.37446C12.5018 3.93911 11.905 3.69661 11.2844 3.69997Z" fill="#171717"/>
<path d="M11.2843 9.60235C10.5781 9.59491 9.88984 9.3787 9.30624 8.98093C8.72263 8.58316 8.26976 8.02162 8.00463 7.367C7.73951 6.71239 7.67398 5.99396 7.81631 5.30219C7.95863 4.61041 8.30245 3.9762 8.80446 3.47942C9.30648 2.98263 9.94425 2.64548 10.6375 2.5104C11.3307 2.37533 12.0484 2.44837 12.7002 2.72034C13.352 2.99231 13.9088 3.45103 14.3004 4.03877C14.6921 4.62651 14.901 5.31698 14.9011 6.02324C14.8944 6.97696 14.5101 7.88917 13.8321 8.56003C13.1542 9.23088 12.238 9.60569 11.2843 9.60235ZM11.2843 3.69997C10.8265 3.70739 10.3811 3.84993 10.004 4.10969C9.62692 4.36945 9.33501 4.73483 9.16493 5.15996C8.99485 5.58508 8.95418 6.05098 9.04804 6.49915C9.14189 6.94731 9.36608 7.35774 9.69244 7.6789C10.0188 8.00006 10.4328 8.21762 10.8824 8.30425C11.332 8.39089 11.7972 8.34273 12.2195 8.16583C12.6419 7.98894 13.0025 7.69119 13.2562 7.30999C13.5098 6.92878 13.6452 6.48113 13.6453 6.02324C13.6386 5.40259 13.3866 4.80981 12.9442 4.37446C12.5018 3.93911 11.905 3.69661 11.2843 3.69997ZM13.4757 10.4437C10.6906 9.95912 7.82348 10.4002 5.31286 11.6996C5.13464 11.7985 4.98707 11.9446 4.88629 12.1218C4.78551 12.299 4.73541 12.5005 4.74146 12.7042V14.9396C4.74146 15.1061 4.80761 15.2659 4.92537 15.3836C5.04312 15.5014 5.20284 15.5675 5.36937 15.5675C5.5359 15.5675 5.69561 15.5014 5.81337 15.3836C5.93113 15.2659 5.99728 15.1061 5.99728 14.9396V12.7859C8.32538 11.6177 10.9729 11.2471 13.5322 11.731L13.4757 10.4437Z" fill="#171717"/>
<path d="M20.4393 13.1744H16.2323V12.2451C16.2323 12.0786 16.1661 11.9189 16.0484 11.8011C15.9306 11.6833 15.7709 11.6172 15.6044 11.6172C15.4378 11.6172 15.2781 11.6833 15.1604 11.8011C15.0426 11.9189 14.9764 12.0786 14.9764 12.2451V13.1744H10.3927C10.2262 13.1744 10.0664 13.2406 9.94868 13.3583C9.83092 13.4761 9.76477 13.6358 9.76477 13.8023V20.0815C9.76477 20.248 9.83092 20.4077 9.94868 20.5255C10.0664 20.6432 10.2262 20.7094 10.3927 20.7094H20.4393C20.6058 20.7094 20.7655 20.6432 20.8833 20.5255C21.001 20.4077 21.0672 20.248 21.0672 20.0815V13.8023C21.0672 13.6358 21.001 13.4761 20.8833 13.3583C20.7655 13.2406 20.6058 13.1744 20.4393 13.1744ZM19.8114 19.4535H11.0206V14.4302H14.9764V14.6877C14.9764 14.8542 15.0426 15.0139 15.1604 15.1317C15.2781 15.2494 15.4378 15.3156 15.6044 15.3156C15.7709 15.3156 15.9306 15.2494 16.0484 15.1317C16.1661 15.0139 16.2323 14.8542 16.2323 14.6877V14.4302H19.8114V19.4535Z" fill="#171717"/>
<path d="M13.4131 16.5781H17.1554V17.4572H13.4131V16.5781ZM6.52487 7.04636C4.78646 7.07545 3.07819 7.5052 1.53296 8.30219C1.36491 8.39096 1.22414 8.52373 1.12571 8.68631C1.02728 8.84889 0.974879 9.03517 0.974121 9.22522V11.1718C0.974121 11.3383 1.04028 11.498 1.15803 11.6158C1.27579 11.7335 1.4355 11.7997 1.60203 11.7997C1.76857 11.7997 1.92828 11.7335 2.04604 11.6158C2.16379 11.498 2.22995 11.3383 2.22995 11.1718V9.35081C3.70636 8.61591 5.34098 8.25578 6.98953 8.30219C6.77384 7.90866 6.61727 7.48551 6.52487 7.04636ZM20.5085 8.29591C19.1226 7.56892 17.5995 7.14108 16.0378 7.04009C15.9458 7.47846 15.7914 7.90137 15.5794 8.29591C17.0506 8.33112 18.4959 8.69136 19.8115 9.35081V11.1718C19.8115 11.3383 19.8777 11.498 19.9954 11.6158C20.1132 11.7335 20.2729 11.7997 20.4394 11.7997C20.606 11.7997 20.7657 11.7335 20.8834 11.6158C21.0012 11.498 21.0673 11.3383 21.0673 11.1718V9.22522C21.0677 9.0341 21.0159 8.84651 20.9174 8.68272C20.8189 8.51893 20.6775 8.38518 20.5085 8.29591ZM6.41185 6.02287V5.60216C5.91995 5.53634 5.47239 5.28333 5.16234 4.89582C4.8523 4.50831 4.70364 4.01615 4.74734 3.5218C4.79103 3.02744 5.02369 2.56899 5.3969 2.24186C5.77011 1.91474 6.2551 1.74415 6.75092 1.76562C7.26664 1.76468 7.76232 1.96521 8.13233 2.32446C8.45878 2.0552 8.81733 1.82741 9.19978 1.64631C8.77256 1.15507 8.20651 0.804808 7.57624 0.641696C6.94597 0.478584 6.28107 0.510278 5.66918 0.732599C5.05728 0.954921 4.52712 1.35744 4.14855 1.88709C3.76999 2.41674 3.5608 3.04867 3.54856 3.69959C3.56174 4.49626 3.87144 5.2594 4.41716 5.83995C4.96288 6.42051 5.70542 6.77677 6.49976 6.83915C6.44649 6.57018 6.41707 6.29702 6.41185 6.02287ZM15.2717 0.509791C14.8402 0.509886 14.413 0.596007 14.0152 0.763119C13.6174 0.930231 13.2568 1.17498 12.9547 1.48306C13.3792 1.63688 13.7806 1.84815 14.1477 2.11097C14.4409 1.90748 14.7837 1.78736 15.1398 1.76342C15.4958 1.73949 15.8517 1.81262 16.1694 1.97504C16.4872 2.13745 16.7549 2.38306 16.944 2.68566C17.1331 2.98827 17.2366 3.33653 17.2433 3.69331C17.2394 4.05978 17.1317 4.41764 16.9328 4.72546C16.7339 5.03328 16.4519 5.27846 16.1194 5.43263C16.1446 5.62625 16.1572 5.82132 16.1571 6.01659C16.1554 6.26899 16.1344 6.52089 16.0943 6.77008C16.7783 6.59423 17.385 6.19716 17.82 5.64069C18.2549 5.08423 18.4937 4.39957 18.4992 3.69331C18.4909 2.84393 18.1468 2.03236 17.5421 1.43586C16.9373 0.839365 16.1211 0.506432 15.2717 0.509791Z" fill="#171717"/>
</svg>
