<svg width="21" height="15" viewBox="0 0 21 15" fill="none" xmlns="http://www.w3.org/2000/svg">
<path fill-rule="evenodd" clip-rule="evenodd" d="M0.99938 6.52304L2.84156 7.14535V11.902C2.84156 12.0191 2.87757 12.1333 2.94458 12.2287C3.01159 12.324 3.10627 12.3959 3.21544 12.4342L10.433 14.9668C10.5471 15.0083 10.6715 15.0105 10.7869 14.973L10.7947 14.9707L10.803 14.9679L18.0228 12.4342C18.132 12.3959 18.2267 12.324 18.2937 12.2287C18.3607 12.1333 18.3967 12.0191 18.3967 11.902V7.14535L20.2389 6.52304C20.3239 6.49439 20.4008 6.44534 20.463 6.38008C20.5252 6.31481 20.571 6.23525 20.5964 6.14819C20.6217 6.06113 20.626 5.96914 20.6087 5.88006C20.5915 5.79098 20.5532 5.70745 20.4972 5.63659L18.2751 2.82069C18.2092 2.7375 18.1213 2.675 18.0217 2.64047L10.8008 0.106157C10.6831 0.0648749 10.5552 0.0648749 10.4375 0.106157L3.21655 2.64047C3.11696 2.67498 3.0291 2.73748 2.96322 2.82069L0.741053 5.63659C0.685076 5.70745 0.646826 5.79098 0.629562 5.88006C0.612298 5.96914 0.616532 6.06113 0.641904 6.14819C0.667276 6.23525 0.713032 6.31481 0.775276 6.38008C0.837519 6.44534 0.914405 6.49439 0.99938 6.52304ZM9.12973 8.8456L10.0636 7.49396V13.6456L3.95264 11.501V7.52043L8.49919 9.05679C8.61277 9.09506 8.7355 9.09512 8.84912 9.05696C8.96274 9.01881 9.06116 8.94448 9.12973 8.84503V8.8456ZM5.09539 3.17268L10.6191 5.11114L16.1429 3.17268L10.6191 1.23421L5.09539 3.17268ZM12.1085 8.8456L11.1747 7.49452V13.6461L17.2856 11.5016V7.52043L12.7391 9.05679C12.6255 9.09506 12.5028 9.09512 12.3892 9.05696C12.2755 9.01881 12.1771 8.94448 12.1085 8.84503V8.8456ZM3.58598 3.83498L2.10657 5.7098L5.16816 6.74437L8.45697 7.85552L9.74194 5.99534L9.66694 5.96887L3.58598 3.83441V3.83498ZM19.1317 5.7098L17.6523 3.83441L11.4963 5.99534L12.7813 7.85552L19.1317 5.7098Z" fill="#171717"/>
</svg>
