<svg width="20" height="15" viewBox="0 0 20 15" fill="none" xmlns="http://www.w3.org/2000/svg">
<path d="M2.69912 0.609375C2.24162 0.609375 1.80286 0.791115 1.47936 1.11462C1.15586 1.43812 0.974121 1.87688 0.974121 2.33437V4.63438C0.974121 5.09187 1.15586 5.53063 1.47936 5.85413C1.80286 6.17763 2.24162 6.35938 2.69912 6.35938H4.99912C5.45662 6.35938 5.89538 6.17763 6.21888 5.85413C6.54238 5.53063 6.72412 5.09187 6.72412 4.63438V2.33437C6.72412 1.87688 6.54238 1.43812 6.21888 1.11462C5.89538 0.791115 5.45662 0.609375 4.99912 0.609375H2.69912ZM2.12412 2.33437C2.12412 2.18188 2.1847 2.03562 2.29253 1.92779C2.40037 1.81996 2.54662 1.75937 2.69912 1.75937H4.99912C5.15162 1.75937 5.29787 1.81996 5.40571 1.92779C5.51354 2.03562 5.57412 2.18188 5.57412 2.33437V4.63438C5.57412 4.78687 5.51354 4.93313 5.40571 5.04096C5.29787 5.14879 5.15162 5.20937 4.99912 5.20937H2.69912C2.54662 5.20937 2.40037 5.14879 2.29253 5.04096C2.1847 4.93313 2.12412 4.78687 2.12412 4.63438V2.33437ZM9.59912 1.75937C9.44662 1.75937 9.30036 1.81996 9.19253 1.92779C9.0847 2.03562 9.02412 2.18188 9.02412 2.33437C9.02412 2.48687 9.0847 2.63313 9.19253 2.74096C9.30036 2.84879 9.44662 2.90937 9.59912 2.90937H18.7991C18.9516 2.90937 19.0979 2.84879 19.2057 2.74096C19.3135 2.63313 19.3741 2.48687 19.3741 2.33437C19.3741 2.18188 19.3135 2.03562 19.2057 1.92779C19.0979 1.81996 18.9516 1.75937 18.7991 1.75937H9.59912ZM9.59912 4.05937C9.44662 4.05937 9.30036 4.11996 9.19253 4.22779C9.0847 4.33562 9.02412 4.48188 9.02412 4.63438C9.02412 4.78687 9.0847 4.93313 9.19253 5.04096C9.30036 5.14879 9.44662 5.20937 9.59912 5.20937H16.4991C16.6516 5.20937 16.7979 5.14879 16.9057 5.04096C17.0135 4.93313 17.0741 4.78687 17.0741 4.63438C17.0741 4.48188 17.0135 4.33562 16.9057 4.22779C16.7979 4.11996 16.6516 4.05937 16.4991 4.05937H9.59912ZM2.69912 8.65938C2.24162 8.65938 1.80286 8.84111 1.47936 9.16462C1.15586 9.48812 0.974121 9.92688 0.974121 10.3844V12.6844C0.974121 13.1419 1.15586 13.5806 1.47936 13.9041C1.80286 14.2276 2.24162 14.4094 2.69912 14.4094H4.99912C5.45662 14.4094 5.89538 14.2276 6.21888 13.9041C6.54238 13.5806 6.72412 13.1419 6.72412 12.6844V10.3844C6.72412 9.92688 6.54238 9.48812 6.21888 9.16462C5.89538 8.84111 5.45662 8.65938 4.99912 8.65938H2.69912ZM2.12412 10.3844C2.12412 10.2319 2.1847 10.0856 2.29253 9.97779C2.40037 9.86995 2.54662 9.80937 2.69912 9.80937H4.99912C5.15162 9.80937 5.29787 9.86995 5.40571 9.97779C5.51354 10.0856 5.57412 10.2319 5.57412 10.3844V12.6844C5.57412 12.8369 5.51354 12.9831 5.40571 13.091C5.29787 13.1988 5.15162 13.2594 4.99912 13.2594H2.69912C2.54662 13.2594 2.40037 13.1988 2.29253 13.091C2.1847 12.9831 2.12412 12.8369 2.12412 12.6844V10.3844ZM9.59912 9.80937C9.44662 9.80937 9.30036 9.86995 9.19253 9.97779C9.0847 10.0856 9.02412 10.2319 9.02412 10.3844C9.02412 10.5369 9.0847 10.6831 9.19253 10.791C9.30036 10.8988 9.44662 10.9594 9.59912 10.9594H18.7991C18.9516 10.9594 19.0979 10.8988 19.2057 10.791C19.3135 10.6831 19.3741 10.5369 19.3741 10.3844C19.3741 10.2319 19.3135 10.0856 19.2057 9.97779C19.0979 9.86995 18.9516 9.80937 18.7991 9.80937H9.59912ZM9.59912 12.1094C9.44662 12.1094 9.30036 12.17 9.19253 12.2778C9.0847 12.3856 9.02412 12.5319 9.02412 12.6844C9.02412 12.8369 9.0847 12.9831 9.19253 13.091C9.30036 13.1988 9.44662 13.2594 9.59912 13.2594H16.4991C16.6516 13.2594 16.7979 13.1988 16.9057 13.091C17.0135 12.9831 17.0741 12.8369 17.0741 12.6844C17.0741 12.5319 17.0135 12.3856 16.9057 12.2778C16.7979 12.17 16.6516 12.1094 16.4991 12.1094H9.59912Z" fill="#171717"/>
</svg>
