<svg width="17" height="21" viewBox="0 0 17 21" fill="none" xmlns="http://www.w3.org/2000/svg">
<path d="M5.47412 11.4098H10.8741M5.47412 15.0098H8.17412M0.974121 3.30977V17.7098C0.974121 18.1872 1.16376 18.645 1.50133 18.9826C1.83889 19.3201 2.29673 19.5098 2.77412 19.5098H13.5741C14.0515 19.5098 14.5093 19.3201 14.8469 18.9826C15.1845 18.645 15.3741 18.1872 15.3741 17.7098V7.21757C15.3741 6.97777 15.3261 6.7404 15.2331 6.51939C15.1401 6.29838 15.0038 6.09818 14.8323 5.93057L10.8363 2.02277C10.5 1.69396 10.0484 1.50982 9.57812 1.50977H2.77412C2.29673 1.50977 1.83889 1.69941 1.50133 2.03697C1.16376 2.37454 0.974121 2.83238 0.974121 3.30977V3.30977Z" stroke="#171717" stroke-width="1.5" stroke-linecap="round" stroke-linejoin="round"/>
</svg>
