<svg width="19" height="18" viewBox="0 0 19 18" fill="none" xmlns="http://www.w3.org/2000/svg">
<path d="M14.8994 0.845855C14.4994 0.464959 13.957 0.250977 13.3913 0.250977C12.8257 0.250977 12.2832 0.464959 11.8833 0.845855L9.77473 2.85398C9.76053 2.32441 9.52966 1.82107 9.13135 1.45131C8.73304 1.08154 8.19881 0.874595 7.64258 0.874605H2.7207C2.15505 0.874605 1.61256 1.08861 1.21258 1.46954C0.812597 1.85048 0.587891 2.36713 0.587891 2.90586V15.0934C0.587891 15.6321 0.812597 16.1487 1.21258 16.5297C1.61256 16.9106 2.15505 17.1246 2.7207 17.1246H15.5176C16.0832 17.1246 16.6257 16.9106 17.0257 16.5297C17.4257 16.1487 17.6504 15.6321 17.6504 15.0934V10.4059C17.6504 9.87706 17.434 9.36909 17.047 8.9899C16.66 8.61071 16.133 8.3902 15.578 8.37523L17.6839 6.37023C18.0838 5.9893 18.3085 5.47267 18.3085 4.93398C18.3085 4.39529 18.0838 3.87866 17.6839 3.49773L14.8994 0.845855ZM11.2034 8.37461H9.77539V7.01461L11.2034 8.37461ZM12.8112 1.72961C12.8874 1.65704 12.9778 1.59947 13.0774 1.5602C13.1769 1.52092 13.2836 1.50071 13.3913 1.50071C13.4991 1.50071 13.6058 1.52092 13.7053 1.5602C13.8048 1.59947 13.8953 1.65704 13.9715 1.72961L16.7553 4.38148C16.8315 4.45403 16.8919 4.54016 16.9331 4.63496C16.9744 4.72976 16.9956 4.83137 16.9956 4.93398C16.9956 5.03659 16.9744 5.1382 16.9331 5.233C16.8919 5.3278 16.8315 5.41393 16.7553 5.48648L13.9715 8.13773C13.8953 8.2103 13.8048 8.26786 13.7053 8.30714C13.6058 8.34641 13.4991 8.36663 13.3913 8.36663C13.2836 8.36663 13.1769 8.34641 13.0774 8.30714C12.9778 8.26786 12.8874 8.2103 12.8112 8.13773L10.0267 5.48648C9.95054 5.41393 9.8901 5.3278 9.84886 5.233C9.80762 5.1382 9.78639 5.03659 9.78639 4.93398C9.78639 4.83137 9.80762 4.72976 9.84886 4.63496C9.8901 4.54016 9.95054 4.45403 10.0267 4.38148L12.8112 1.72961ZM8.46289 2.90586V8.37461H1.90039V2.90586C1.90039 2.47461 2.26789 2.12461 2.7207 2.12461H7.64258C8.09539 2.12461 8.46289 2.47461 8.46289 2.90586ZM1.90039 15.0934V9.62461H8.46289V15.8746H2.7207C2.26789 15.8746 1.90039 15.5246 1.90039 15.0934ZM9.77539 9.62461H15.5176C15.9704 9.62461 16.3379 9.97461 16.3379 10.4059V15.0934C16.3379 15.5246 15.9704 15.8746 15.5176 15.8746H9.77539V9.62461Z" fill="#171717"/>
</svg>
