<svg width="18" height="17" viewBox="0 0 18 17" fill="none" xmlns="http://www.w3.org/2000/svg">
<path d="M2.77279 8.10531V6.27197C2.77279 4.81328 3.35225 3.41434 4.3837 2.38289C5.41515 1.35144 6.8141 0.771973 8.27279 0.771973C9.73148 0.771973 11.1304 1.35144 12.1619 2.38289C13.1933 3.41434 13.7728 4.81328 13.7728 6.27197V8.10531M13.7728 8.10531L11.0228 5.35531M13.7728 8.10531L16.5228 5.35531M4.60612 13.6053C4.60612 14.6178 3.78531 15.4386 2.77279 15.4386C1.76026 15.4386 0.939453 14.6178 0.939453 13.6053C0.939453 12.5928 1.76026 11.772 2.77279 11.772C3.78531 11.772 4.60612 12.5928 4.60612 13.6053ZM15.6061 13.6053C15.6061 14.6178 14.7853 15.4386 13.7728 15.4386C12.7603 15.4386 11.9395 14.6178 11.9395 13.6053C11.9395 12.5928 12.7603 11.772 13.7728 11.772C14.7853 11.772 15.6061 12.5928 15.6061 13.6053Z" stroke="#171717" stroke-width="1.5" stroke-linecap="round" stroke-linejoin="round"/>
</svg>
