<svg width="19" height="19" viewBox="0 0 19 19" fill="none" xmlns="http://www.w3.org/2000/svg">
<path d="M2.49286 18.2344C1.99982 18.2344 1.51785 18.0882 1.1079 17.8143C0.697953 17.5403 0.378437 17.151 0.189759 16.6955C0.00108011 16.24 -0.0482868 15.7388 0.0479007 15.2552C0.144088 14.7716 0.38151 14.3274 0.730142 13.9788C1.07877 13.6302 1.52296 13.3927 2.00653 13.2966C2.49009 13.2004 2.99132 13.2497 3.44683 13.4384C3.90234 13.6271 4.29167 13.9466 4.56559 14.3566C4.83951 14.7665 4.98571 15.2485 4.98571 15.7415C4.98497 16.4024 4.72209 17.0361 4.25475 17.5034C3.78741 17.9708 3.15378 18.2336 2.49286 18.2344ZM2.49286 14.4951C2.24634 14.4951 2.00535 14.5682 1.80038 14.7051C1.59541 14.8421 1.43565 15.0368 1.34131 15.2645C1.24697 15.4923 1.22229 15.7429 1.27038 15.9847C1.31847 16.2265 1.43718 16.4486 1.6115 16.6229C1.78582 16.7972 2.00791 16.9159 2.24969 16.964C2.49148 17.0121 2.74209 16.9874 2.96985 16.8931C3.1976 16.7987 3.39227 16.639 3.52923 16.434C3.66618 16.229 3.73929 15.988 3.73929 15.7415C3.73892 15.4111 3.60748 15.0942 3.37381 14.8606C3.14014 14.6269 2.82332 14.4955 2.49286 14.4951ZM9.03661 18.2344C8.54357 18.2344 8.0616 18.0882 7.65165 17.8143C7.2417 17.5403 6.92219 17.151 6.73351 16.6955C6.54483 16.24 6.49546 15.7388 6.59165 15.2552C6.68784 14.7716 6.92526 14.3274 7.27389 13.9788C7.62252 13.6302 8.06671 13.3927 8.55027 13.2966C9.03384 13.2004 9.53507 13.2497 9.99058 13.4384C10.4461 13.6271 10.8354 13.9466 11.1093 14.3566C11.3833 14.7665 11.5295 15.2485 11.5295 15.7415C11.5287 16.4024 11.2658 17.0361 10.7985 17.5034C10.3312 17.9708 9.69753 18.2336 9.03661 18.2344ZM9.03661 14.4951C8.79009 14.4951 8.5491 14.5682 8.34413 14.7051C8.13915 14.8421 7.9794 15.0368 7.88506 15.2645C7.79072 15.4923 7.76603 15.7429 7.81413 15.9847C7.86222 16.2265 7.98093 16.4486 8.15525 16.6229C8.32957 16.7972 8.55166 16.9159 8.79344 16.964C9.03522 17.0121 9.28584 16.9874 9.51359 16.8931C9.74135 16.7987 9.93602 16.639 10.073 16.434C10.2099 16.229 10.283 15.988 10.283 15.7415C10.2827 15.4111 10.1512 15.0942 9.91755 14.8606C9.68388 14.6269 9.36707 14.4955 9.03661 14.4951ZM15.5804 13.2487C16.0734 13.2487 16.5554 13.3949 16.9653 13.6688C17.3753 13.9427 17.6948 14.332 17.8835 14.7875C18.0721 15.2431 18.1215 15.7443 18.0253 16.2278C17.9291 16.7114 17.6917 17.1556 17.3431 17.5042C16.9944 17.8529 16.5503 18.0903 16.0667 18.1865C15.5831 18.2827 15.0819 18.2333 14.6264 18.0446C14.1709 17.8559 13.7815 17.5364 13.5076 17.1265C13.2337 16.7165 13.0875 16.2346 13.0875 15.7415C13.0882 15.0806 13.3511 14.447 13.8185 13.9796C14.2858 13.5123 14.9194 13.2494 15.5804 13.2487ZM15.5804 16.9879C15.8269 16.9879 16.0679 16.9148 16.2728 16.7779C16.4778 16.6409 16.6376 16.4463 16.7319 16.2185C16.8262 15.9907 16.8509 15.7401 16.8028 15.4984C16.7547 15.2566 16.636 15.0345 16.4617 14.8602C16.2874 14.6858 16.0653 14.5671 15.8235 14.519C15.5817 14.4709 15.3311 14.4956 15.1034 14.59C14.8756 14.6843 14.6809 14.8441 14.544 15.049C14.407 15.254 14.3339 15.495 14.3339 15.7415C14.3343 16.072 14.4657 16.3888 14.6994 16.6225C14.9331 16.8561 15.2499 16.9876 15.5804 16.9879ZM2.49286 12.0022C1.99982 12.0022 1.51785 11.856 1.1079 11.5821C0.697953 11.3082 0.378437 10.9189 0.189759 10.4633C0.00108011 10.0078 -0.0482868 9.50661 0.0479007 9.02304C0.144088 8.53948 0.38151 8.09529 0.730142 7.74666C1.07877 7.39803 1.52296 7.1606 2.00653 7.06442C2.49009 6.96823 2.99132 7.0176 3.44683 7.20627C3.90234 7.39495 4.29167 7.71447 4.56559 8.12442C4.83951 8.53437 4.98571 9.01633 4.98571 9.50937C4.98497 10.1703 4.72209 10.8039 4.25475 11.2713C3.78741 11.7386 3.15378 12.0015 2.49286 12.0022ZM2.49286 8.26295C2.24634 8.26295 2.00535 8.33605 1.80038 8.47301C1.59541 8.60997 1.43565 8.80463 1.34131 9.03239C1.24697 9.26014 1.22229 9.51076 1.27038 9.75254C1.31847 9.99432 1.43718 10.2164 1.6115 10.3907C1.78582 10.565 2.00791 10.6838 2.24969 10.7319C2.49148 10.7799 2.74209 10.7553 2.96985 10.6609C3.1976 10.5666 3.39227 10.4068 3.52923 10.2019C3.66618 9.99688 3.73929 9.75589 3.73929 9.50937C3.73892 9.17892 3.60748 8.8621 3.37381 8.62843C3.14014 8.39476 2.82332 8.26332 2.49286 8.26295ZM9.03661 12.0022C8.54357 12.0022 8.0616 11.856 7.65165 11.5821C7.2417 11.3082 6.92219 10.9189 6.73351 10.4633C6.54483 10.0078 6.49546 9.50661 6.59165 9.02304C6.68784 8.53948 6.92526 8.09529 7.27389 7.74666C7.62252 7.39803 8.06671 7.1606 8.55027 7.06442C9.03384 6.96823 9.53507 7.0176 9.99058 7.20627C10.4461 7.39495 10.8354 7.71447 11.1093 8.12442C11.3833 8.53437 11.5295 9.01633 11.5295 9.50937C11.5287 10.1703 11.2658 10.8039 10.7985 11.2713C10.3312 11.7386 9.69753 12.0015 9.03661 12.0022ZM9.03661 8.26295C8.79009 8.26295 8.5491 8.33605 8.34413 8.47301C8.13915 8.60997 7.9794 8.80463 7.88506 9.03239C7.79072 9.26014 7.76603 9.51076 7.81413 9.75254C7.86222 9.99432 7.98093 10.2164 8.15525 10.3907C8.32957 10.565 8.55166 10.6838 8.79344 10.7319C9.03522 10.7799 9.28584 10.7553 9.51359 10.6609C9.74135 10.5666 9.93602 10.4068 10.073 10.2019C10.2099 9.99688 10.283 9.75589 10.283 9.50937C10.2827 9.17892 10.1512 8.8621 9.91755 8.62843C9.68388 8.39476 9.36707 8.26332 9.03661 8.26295ZM15.5804 12.0022C15.0873 12.0022 14.6053 11.856 14.1954 11.5821C13.7855 11.3082 13.4659 10.9189 13.2773 10.4633C13.0886 10.0078 13.0392 9.50661 13.1354 9.02304C13.2316 8.53948 13.469 8.09529 13.8176 7.74666C14.1663 7.39803 14.6105 7.1606 15.094 7.06442C15.5776 6.96823 16.0788 7.0176 16.5343 7.20627C16.9898 7.39495 17.3792 7.71447 17.6531 8.12442C17.927 8.53437 18.0732 9.01633 18.0732 9.50937C18.0725 10.1703 17.8096 10.8039 17.3423 11.2713C16.8749 11.7386 16.2413 12.0015 15.5804 12.0022ZM15.5804 8.26295C15.3338 8.26295 15.0929 8.33605 14.8879 8.47301C14.6829 8.60997 14.5231 8.80463 14.4288 9.03239C14.3345 9.26014 14.3098 9.51076 14.3579 9.75254C14.406 9.99432 14.5247 10.2164 14.699 10.3907C14.8733 10.565 15.0954 10.6838 15.3372 10.7319C15.579 10.7799 15.8296 10.7553 16.0573 10.6609C16.2851 10.5666 16.4798 10.4068 16.6167 10.2019C16.7537 9.99688 16.8268 9.75589 16.8268 9.50937C16.8264 9.17892 16.695 8.8621 16.4613 8.62843C16.2276 8.39476 15.9108 8.26332 15.5804 8.26295ZM2.49286 5.77009C1.99982 5.77009 1.51785 5.62389 1.1079 5.34997C0.697953 5.07605 0.378437 4.68672 0.189759 4.23121C0.00108011 3.7757 -0.0482868 3.27447 0.0479007 2.7909C0.144088 2.30733 0.38151 1.86315 0.730142 1.51452C1.07877 1.16588 1.52296 0.928461 2.00653 0.832273C2.49009 0.736088 2.99132 0.785454 3.44683 0.974133C3.90234 1.16281 4.29167 1.48233 4.56559 1.89227C4.83951 2.30222 4.98571 2.78419 4.98571 3.27723C4.98497 3.93815 4.72209 4.57179 4.25475 5.03913C3.78741 5.50647 3.15378 5.76935 2.49286 5.77009ZM2.49286 2.0308C2.24634 2.0308 2.00535 2.1039 1.80038 2.24086C1.59541 2.37782 1.43565 2.57249 1.34131 2.80024C1.24697 3.028 1.22229 3.27861 1.27038 3.5204C1.31847 3.76218 1.43718 3.98427 1.6115 4.15859C1.78582 4.33291 2.00791 4.45162 2.24969 4.49971C2.49148 4.5478 2.74209 4.52312 2.96985 4.42878C3.1976 4.33444 3.39227 4.17469 3.52923 3.96971C3.66618 3.76474 3.73929 3.52375 3.73929 3.27723C3.73892 2.94677 3.60748 2.62995 3.37381 2.39628C3.14014 2.16261 2.82332 2.03117 2.49286 2.0308ZM9.03661 5.77009C8.54357 5.77009 8.0616 5.62389 7.65165 5.34997C7.2417 5.07605 6.92219 4.68672 6.73351 4.23121C6.54483 3.7757 6.49546 3.27447 6.59165 2.7909C6.68784 2.30733 6.92526 1.86315 7.27389 1.51452C7.62252 1.16588 8.06671 0.928461 8.55027 0.832273C9.03384 0.736088 9.53507 0.785454 9.99058 0.974133C10.4461 1.16281 10.8354 1.48233 11.1093 1.89227C11.3833 2.30222 11.5295 2.78419 11.5295 3.27723C11.5287 3.93815 11.2658 4.57179 10.7985 5.03913C10.3312 5.50647 9.69753 5.76935 9.03661 5.77009ZM9.03661 2.0308C8.79009 2.0308 8.5491 2.1039 8.34413 2.24086C8.13915 2.37782 7.9794 2.57249 7.88506 2.80024C7.79072 3.028 7.76603 3.27861 7.81413 3.5204C7.86222 3.76218 7.98093 3.98427 8.15525 4.15859C8.32957 4.33291 8.55166 4.45162 8.79344 4.49971C9.03522 4.5478 9.28584 4.52312 9.51359 4.42878C9.74135 4.33444 9.93602 4.17469 10.073 3.96971C10.2099 3.76474 10.283 3.52375 10.283 3.27723C10.2827 2.94677 10.1512 2.62995 9.91755 2.39628C9.68388 2.16261 9.36707 2.03117 9.03661 2.0308ZM15.5804 5.77009C15.0873 5.77009 14.6053 5.62389 14.1954 5.34997C13.7855 5.07605 13.4659 4.68672 13.2773 4.23121C13.0886 3.7757 13.0392 3.27447 13.1354 2.7909C13.2316 2.30733 13.469 1.86315 13.8176 1.51452C14.1663 1.16588 14.6105 0.928461 15.094 0.832273C15.5776 0.736088 16.0788 0.785454 16.5343 0.974133C16.9898 1.16281 17.3792 1.48233 17.6531 1.89227C17.927 2.30222 18.0732 2.78419 18.0732 3.27723C18.0725 3.93815 17.8096 4.57179 17.3423 5.03913C16.8749 5.50647 16.2413 5.76935 15.5804 5.77009ZM15.5804 2.0308C15.3338 2.0308 15.0929 2.1039 14.8879 2.24086C14.6829 2.37782 14.5231 2.57249 14.4288 2.80024C14.3345 3.028 14.3098 3.27861 14.3579 3.5204C14.406 3.76218 14.5247 3.98427 14.699 4.15859C14.8733 4.33291 15.0954 4.45162 15.3372 4.49971C15.579 4.5478 15.8296 4.52312 16.0573 4.42878C16.2851 4.33444 16.4798 4.17469 16.6167 3.96971C16.7537 3.76474 16.8268 3.52375 16.8268 3.27723C16.8264 2.94677 16.695 2.62995 16.4613 2.39628C16.2276 2.16261 15.9108 2.03117 15.5804 2.0308Z" fill="#171717"/>
</svg>
