<svg width="17" height="16" viewBox="0 0 17 16" fill="none" xmlns="http://www.w3.org/2000/svg">
<path fill-rule="evenodd" clip-rule="evenodd" d="M1.30664 15.75H16.4941V14.625H1.86914V0H0.744141V15.1875L1.30664 15.75ZM2.99414 12.9375V3.9375L3.55664 3.375H5.80664L6.36914 3.9375V12.9375L5.80664 13.5H3.55664L2.99414 12.9375ZM5.24414 12.375V4.5H4.11914V12.375H5.24414ZM11.9941 1.6875V12.9375L12.5566 13.5H14.8066L15.3691 12.9375V1.6875L14.8066 1.125H12.5566L11.9941 1.6875ZM14.2441 2.25V12.375H13.1191V2.25H14.2441ZM7.49414 12.9375V6.1875L8.05664 5.625H10.3066L10.8691 6.1875V12.9375L10.3066 13.5H8.05664L7.49414 12.9375ZM9.74414 12.375V6.75H8.61914V12.375H9.74414Z" fill="#171717"/>
</svg>
