<svg width="17" height="21" viewBox="0 0 17 21" fill="none" xmlns="http://www.w3.org/2000/svg">
<path d="M4.54578 12.1388H10.2601V13.5674H4.54578V12.1388ZM4.54578 8.56738H13.1172V9.99595H4.54578V8.56738ZM4.54578 15.7102H8.11721V17.1388H4.54578V15.7102Z" fill="#171717"/>
<path d="M15.2598 2.85282H13.117V2.13853C13.117 1.75965 12.9665 1.39629 12.6986 1.12838C12.4307 0.860471 12.0673 0.709961 11.6884 0.709961H5.97412C5.59524 0.709961 5.23188 0.860471 4.96397 1.12838C4.69606 1.39629 4.54555 1.75965 4.54555 2.13853V2.85282H2.40269C2.02381 2.85282 1.66045 3.00333 1.39254 3.27124C1.12463 3.53915 0.974121 3.90251 0.974121 4.28139V19.2814C0.974121 19.6603 1.12463 20.0236 1.39254 20.2915C1.66045 20.5595 2.02381 20.71 2.40269 20.71H15.2598C15.6387 20.71 16.0021 20.5595 16.27 20.2915C16.5379 20.0236 16.6884 19.6603 16.6884 19.2814V4.28139C16.6884 3.90251 16.5379 3.53915 16.27 3.27124C16.0021 3.00333 15.6387 2.85282 15.2598 2.85282ZM5.97412 2.13853H11.6884V4.99568H5.97412V2.13853ZM15.2598 19.2814H2.40269V4.28139H4.54555V6.42425H13.117V4.28139H15.2598V19.2814Z" fill="#171717"/>
</svg>
