<svg width="18" height="16" viewBox="0 0 18 16" fill="none" xmlns="http://www.w3.org/2000/svg">
<path d="M0.224121 2.08496C0.224121 1.58768 0.421665 1.11077 0.773296 0.759136C1.12493 0.407505 1.60184 0.209961 2.09912 0.209961H15.8491C16.3464 0.209961 16.8233 0.407505 17.1749 0.759136C17.5266 1.11077 17.7241 1.58768 17.7241 2.08496V5.83496C17.7241 6.33224 17.5266 6.80916 17.1749 7.16079C16.8233 7.51242 16.3464 7.70996 15.8491 7.70996H2.09912C1.60184 7.70996 1.12493 7.51242 0.773296 7.16079C0.421665 6.80916 0.224121 6.33224 0.224121 5.83496V2.08496ZM2.09912 1.45996C1.93336 1.45996 1.77439 1.52581 1.65718 1.64302C1.53997 1.76023 1.47412 1.9192 1.47412 2.08496V5.83496C1.47412 6.00072 1.53997 6.15969 1.65718 6.2769C1.77439 6.39411 1.93336 6.45996 2.09912 6.45996H15.8491C16.0149 6.45996 16.1739 6.39411 16.2911 6.2769C16.4083 6.15969 16.4741 6.00072 16.4741 5.83496V2.08496C16.4741 1.9192 16.4083 1.76023 16.2911 1.64302C16.1739 1.52581 16.0149 1.45996 15.8491 1.45996H2.09912ZM0.224121 12.085C0.224121 11.5877 0.421665 11.1108 0.773296 10.7591C1.12493 10.4075 1.60184 10.21 2.09912 10.21H5.84912C6.3464 10.21 6.82332 10.4075 7.17495 10.7591C7.52658 11.1108 7.72412 11.5877 7.72412 12.085V13.335C7.72412 13.8322 7.52658 14.3092 7.17495 14.6608C6.82332 15.0124 6.3464 15.21 5.84912 15.21H2.09912C1.60184 15.21 1.12493 15.0124 0.773296 14.6608C0.421665 14.3092 0.224121 13.8322 0.224121 13.335V12.085ZM2.09912 11.46C1.93336 11.46 1.77439 11.5258 1.65718 11.643C1.53997 11.7602 1.47412 11.9192 1.47412 12.085V13.335C1.47412 13.5007 1.53997 13.6597 1.65718 13.7769C1.77439 13.8941 1.93336 13.96 2.09912 13.96H5.84912C6.01488 13.96 6.17385 13.8941 6.29106 13.7769C6.40827 13.6597 6.47412 13.5007 6.47412 13.335V12.085C6.47412 11.9192 6.40827 11.7602 6.29106 11.643C6.17385 11.5258 6.01488 11.46 5.84912 11.46H2.09912ZM12.0991 10.21C11.6018 10.21 11.1249 10.4075 10.7733 10.7591C10.4217 11.1108 10.2241 11.5877 10.2241 12.085V13.335C10.2241 13.8322 10.4217 14.3092 10.7733 14.6608C11.1249 15.0124 11.6018 15.21 12.0991 15.21H15.8491C16.3464 15.21 16.8233 15.0124 17.1749 14.6608C17.5266 14.3092 17.7241 13.8322 17.7241 13.335V12.085C17.7241 11.5877 17.5266 11.1108 17.1749 10.7591C16.8233 10.4075 16.3464 10.21 15.8491 10.21H12.0991ZM11.4741 12.085C11.4741 11.9192 11.54 11.7602 11.6572 11.643C11.7744 11.5258 11.9334 11.46 12.0991 11.46H15.8491C16.0149 11.46 16.1739 11.5258 16.2911 11.643C16.4083 11.7602 16.4741 11.9192 16.4741 12.085V13.335C16.4741 13.5007 16.4083 13.6597 16.2911 13.7769C16.1739 13.8941 16.0149 13.96 15.8491 13.96H12.0991C11.9334 13.96 11.7744 13.8941 11.6572 13.7769C11.54 13.6597 11.4741 13.5007 11.4741 13.335V12.085Z" fill="#171717"/>
</svg>
