<svg width="18" height="19" viewBox="0 0 18 19" fill="none" xmlns="http://www.w3.org/2000/svg">
<path d="M9.09431 0.534784C9.21183 0.387734 9.35735 0.265454 9.52244 0.175021C9.68754 0.0845886 9.86893 0.0277999 10.0561 0.0079424C10.2433 -0.0119151 10.4326 0.00555293 10.613 0.0593355C10.7934 0.113118 10.9613 0.202147 11.1071 0.321268L15.7503 4.11332C16.0057 4.32181 16.1807 4.61247 16.2456 4.93567C16.3105 5.25888 16.2613 5.59459 16.1062 5.8855C15.7002 5.76143 15.278 5.69858 14.8536 5.69903H14.4265L14.8507 5.21506L12.4052 3.21797L10.3882 5.70045H8.5534L11.3021 2.31836L10.206 1.42301L6.79261 5.69903H4.9706L9.09431 0.534784ZM12.7184 12.8162C12.5296 12.8162 12.3486 12.8912 12.2151 13.0247C12.0817 13.1582 12.0067 13.3392 12.0067 13.528C12.0067 13.7167 12.0817 13.8977 12.2151 14.0312C12.3486 14.1647 12.5296 14.2397 12.7184 14.2397H14.1418C14.3306 14.2397 14.5116 14.1647 14.6451 14.0312C14.7786 13.8977 14.8536 13.7167 14.8536 13.528C14.8536 13.3392 14.7786 13.1582 14.6451 13.0247C14.5116 12.8912 14.3306 12.8162 14.1418 12.8162H12.7184ZM2.04258 6.41075C2.04258 6.22199 2.11757 6.04096 2.25104 5.90749C2.38451 5.77401 2.56554 5.69903 2.7543 5.69903H3.54858L4.68022 4.27559H2.7543C2.18802 4.27559 1.64494 4.50054 1.24452 4.90096C0.844095 5.30138 0.619141 5.84447 0.619141 6.41075V14.9514C0.619141 15.8952 0.994064 16.8003 1.66143 17.4677C2.3288 18.1351 3.23394 18.51 4.17774 18.51H14.8536C15.6086 18.51 16.3327 18.2101 16.8666 17.6762C17.4005 17.1423 17.7004 16.4182 17.7004 15.6631V9.96935C17.7004 9.21431 17.4005 8.4902 16.8666 7.9563C16.3327 7.42241 15.6086 7.12247 14.8536 7.12247H2.7543C2.56554 7.12247 2.38451 7.04749 2.25104 6.91401C2.11757 6.78054 2.04258 6.59951 2.04258 6.41075ZM2.04258 14.9514V8.42492C2.26464 8.50321 2.5052 8.54591 2.7543 8.54591H14.8536C15.2311 8.54591 15.5931 8.69588 15.8601 8.96283C16.127 9.22977 16.277 9.59183 16.277 9.96935V15.6631C16.277 16.0406 16.127 16.4027 15.8601 16.6696C15.5931 16.9366 15.2311 17.0866 14.8536 17.0866H4.17774C3.61146 17.0866 3.06838 16.8616 2.66796 16.4612C2.26754 16.0608 2.04258 15.5177 2.04258 14.9514Z" fill="#171717"/>
</svg>
