<svg width="16" height="15" viewBox="0 0 16 15" fill="none" xmlns="http://www.w3.org/2000/svg">
<path d="M14.4019 5.48117C14.1357 5.61676 13.8523 5.7157 13.5596 5.7753C13.7075 6.22867 13.7842 6.70224 13.7869 7.17911C13.7767 7.86322 13.6245 8.53776 13.3399 9.15994C13.0553 9.78211 12.6445 10.3384 12.1335 10.7934C12.0887 10.8349 12.0529 10.8852 12.0284 10.9412C12.0039 10.9972 11.9911 11.0576 11.9909 11.1187V13.4985L10.0389 12.2551C9.98448 12.2207 9.92322 12.1985 9.85936 12.19C9.7955 12.1816 9.73057 12.1871 9.66903 12.2061C8.98216 12.4194 8.26696 12.5276 7.54772 12.527C4.10726 12.527 1.30855 10.1293 1.30855 7.17911C1.30855 4.22888 4.10726 1.83125 7.54772 1.83125C8.23426 1.83117 8.91722 1.93023 9.57545 2.12538C9.60325 1.82951 9.6707 1.53871 9.77599 1.26081C9.05201 1.04964 8.30187 0.941624 7.54772 0.939941C3.61704 0.939941 0.417236 3.73866 0.417236 7.17911C0.417236 10.6196 3.61704 13.4183 7.54772 13.4183C8.28311 13.4174 9.0149 13.3155 9.72251 13.1152L12.187 14.6839C12.2543 14.7271 12.3319 14.7514 12.4118 14.7542C12.4917 14.7571 12.5709 14.7384 12.641 14.7001C12.7112 14.6618 12.7698 14.6054 12.8107 14.5367C12.8515 14.468 12.8732 14.3895 12.8733 14.3096V11.3103C13.4309 10.7754 13.8759 10.1343 14.182 9.42484C14.4882 8.71536 14.6493 7.9518 14.6559 7.17911C14.6608 6.60331 14.5751 6.03033 14.4019 5.48117Z" fill="#171717"/>
<path d="M4.42832 6.73346C4.31013 6.73346 4.19677 6.78041 4.1132 6.86399C4.02962 6.94757 3.98267 7.06092 3.98267 7.17911C3.98267 7.29731 4.02962 7.41066 4.1132 7.49424C4.19677 7.57782 4.31013 7.62477 4.42832 7.62477H10.6675C10.7857 7.62477 10.899 7.57782 10.9826 7.49424C11.0662 7.41066 11.1131 7.29731 11.1131 7.17911C11.1131 7.06092 11.0662 6.94757 10.9826 6.86399C10.899 6.78041 10.7857 6.73346 10.6675 6.73346H4.42832Z" fill="#171717"/>
<path d="M5.87656 8.96173C5.75837 8.96173 5.64501 9.00868 5.56144 9.09226C5.47786 9.17584 5.43091 9.28919 5.43091 9.40739C5.43091 9.52558 5.47786 9.63894 5.56144 9.72251C5.64501 9.80609 5.75837 9.85304 5.87656 9.85304H9.21898C9.33717 9.85304 9.45053 9.80609 9.5341 9.72251C9.61768 9.63894 9.66463 9.52558 9.66463 9.40739C9.66463 9.28919 9.61768 9.17584 9.5341 9.09226C9.45053 9.00868 9.33717 8.96173 9.21898 8.96173H5.87656Z" fill="#171717"/>
<path d="M4.10742 4.95084C4.10742 5.06904 4.15437 5.18239 4.23795 5.26597C4.32153 5.34955 4.43488 5.3965 4.55308 5.3965H10.5427C10.6169 5.39515 10.6896 5.37529 10.7542 5.33871C10.8188 5.30213 10.8732 5.25 10.9126 5.18704C10.6505 4.99443 10.4178 4.76475 10.2218 4.50519H4.55308C4.43488 4.50519 4.32153 4.55214 4.23795 4.63572C4.15437 4.71929 4.10742 4.83265 4.10742 4.95084Z" fill="#171717"/>
<path d="M12.8958 4.72797C14.1264 4.72797 15.124 3.73034 15.124 2.4997C15.124 1.26906 14.1264 0.271423 12.8958 0.271423C11.6651 0.271423 10.6675 1.26906 10.6675 2.4997C10.6675 3.73034 11.6651 4.72797 12.8958 4.72797Z" fill="#234CE3"/>
</svg>
