<svg width="14" height="15" viewBox="0 0 14 15" fill="none" xmlns="http://www.w3.org/2000/svg">
<path fill-rule="evenodd" clip-rule="evenodd" d="M11.066 7.3885C10.7412 7.47158 10.4073 7.51357 10.072 7.5135H10.062V7.7305C10.062 8.6395 10.205 9.5485 10.504 10.4215L10.875 11.5345H1.24502V11.5225L1.61502 10.4095C1.90433 9.54164 2.05387 8.63331 2.05802 7.7185V5.5175C2.05802 4.9545 2.17802 4.4045 2.40502 3.9015C2.63202 3.3875 2.95502 2.9325 3.37402 2.5615C3.79302 2.1795 4.28402 1.8915 4.81002 1.7245C5.34802 1.5445 5.91002 1.4845 6.46002 1.5445L6.58002 1.5625C6.76191 1.23691 6.98843 0.938348 7.25302 0.675502C7.02407 0.614523 6.79118 0.569416 6.55602 0.540502C5.86202 0.468502 5.15602 0.540502 4.48602 0.767502C3.81602 0.982502 3.20602 1.3415 2.69202 1.8205C2.17546 2.28715 1.76373 2.85804 1.48402 3.4955C1.20292 4.13272 1.0562 4.82104 1.05302 5.5175V7.7175C1.05156 8.52279 0.922281 9.32274 0.670022 10.0875L0.0720215 11.8565L0.551022 12.5145H4.05602C4.05602 13.0405 4.27102 13.5545 4.64202 13.9265C5.01202 14.2965 5.52702 14.5125 6.05402 14.5125C6.58002 14.5125 7.09402 14.2975 7.46502 13.9265C7.83602 13.5555 8.05202 13.0405 8.05202 12.5145H11.557L12.035 11.8565L11.449 10.0865C11.1959 9.31816 11.0667 8.51445 11.066 7.7055V7.3875V7.3885ZM6.05402 13.5335C6.18568 13.5326 6.31585 13.5056 6.43703 13.4541C6.5582 13.4026 6.66798 13.3276 6.76002 13.2335C6.85442 13.1425 6.92873 13.0328 6.97816 12.9114C7.02759 12.79 7.05105 12.6595 7.04702 12.5285H5.04902C5.04902 12.7915 5.15602 13.0425 5.34802 13.2345C5.44021 13.3284 5.55004 13.4031 5.6712 13.4544C5.79235 13.5057 5.92245 13.5326 6.05402 13.5335Z" fill="#171717"/>
<path d="M10.072 6.51349C10.466 6.51349 10.8561 6.43589 11.2201 6.28513C11.584 6.13436 11.9148 5.91338 12.1933 5.63481C12.4719 5.35623 12.6929 5.02552 12.8437 4.66154C12.9944 4.29756 13.072 3.90745 13.072 3.51349C13.072 3.11952 12.9944 2.72942 12.8437 2.36544C12.6929 2.00146 12.4719 1.67074 12.1933 1.39217C11.9148 1.11359 11.584 0.892614 11.2201 0.74185C10.8561 0.591086 10.466 0.513489 10.072 0.513489C9.27637 0.513489 8.51331 0.829559 7.9507 1.39217C7.38809 1.95478 7.07202 2.71784 7.07202 3.51349C7.07202 4.30914 7.38809 5.0722 7.9507 5.63481C8.51331 6.19742 9.27637 6.51349 10.072 6.51349Z" fill="#FE3F51"/>
</svg>
