<svg width="18" height="18" viewBox="0 0 18 18" fill="none" xmlns="http://www.w3.org/2000/svg">
<path opacity="0.2" d="M8.17508 15.6837C12.3218 15.6837 15.6834 12.3221 15.6834 8.17533C15.6834 4.02859 12.3218 0.666992 8.17508 0.666992C4.02834 0.666992 0.666748 4.02859 0.666748 8.17533C0.666748 12.3221 4.02834 15.6837 8.17508 15.6837Z" fill="#35446F"/>
<path d="M17.3252 14.7917C17.0502 14.2833 16.4669 14 15.6835 14C15.0919 14 14.5835 14.2417 14.2835 14.6583C13.9835 15.075 13.9169 15.6333 14.1002 16.1917C14.4585 17.275 15.0835 17.5167 15.4252 17.5583C15.4752 17.5667 15.5252 17.5667 15.5835 17.5667C15.9502 17.5667 16.5169 17.4083 17.0669 16.5833C17.5085 15.9417 17.5919 15.3 17.3252 14.7917Z" fill="#35446F"/>
</svg>
