<svg width="13" height="13" viewBox="0 0 13 13" fill="none" xmlns="http://www.w3.org/2000/svg">
<path d="M0.54126 2.23517H2.9857M11.5413 2.23517H5.43015M0.54126 6.51295H7.87459M11.5413 6.51295H10.319M0.54126 10.7907H1.76348M11.5413 10.7907H4.20793" stroke="#818181" stroke-linecap="round"/>
<path d="M4.20782 3.45738C4.88283 3.45738 5.43004 2.91018 5.43004 2.23516C5.43004 1.56015 4.88283 1.01294 4.20782 1.01294C3.5328 1.01294 2.9856 1.56015 2.9856 2.23516C2.9856 2.91018 3.5328 3.45738 4.20782 3.45738Z" stroke="#818181" stroke-linecap="round"/>
<path d="M9.09673 7.73515C9.77175 7.73515 10.319 7.18795 10.319 6.51293C10.319 5.83792 9.77175 5.29071 9.09673 5.29071C8.42172 5.29071 7.87451 5.83792 7.87451 6.51293C7.87451 7.18795 8.42172 7.73515 9.09673 7.73515Z" stroke="#818181" stroke-linecap="round"/>
<path d="M2.98565 12.0129C3.66066 12.0129 4.20787 11.4657 4.20787 10.7907C4.20787 10.1157 3.66066 9.56848 2.98565 9.56848C2.31064 9.56848 1.76343 10.1157 1.76343 10.7907C1.76343 11.4657 2.31064 12.0129 2.98565 12.0129Z" stroke="#818181" stroke-linecap="round"/>
</svg>
