<svg width="19" height="21" viewBox="0 0 19 21" fill="none" xmlns="http://www.w3.org/2000/svg">
<path d="M17.9727 15.4287C16.7227 15.4287 15.5227 15.2287 14.4027 14.8587C14.3027 14.8287 14.1927 14.8087 14.0927 14.8087C13.8327 14.8087 13.5827 14.9087 13.3827 15.0987L11.1827 17.2987C8.35266 15.8587 6.03266 13.5487 4.59266 10.7087L6.79266 8.49871C7.07266 8.23871 7.15266 7.84871 7.04266 7.49871C6.67266 6.37871 6.47266 5.17871 6.47266 3.92871C6.47266 3.37871 6.02266 2.92871 5.47266 2.92871H1.97266C1.42266 2.92871 0.972656 3.37871 0.972656 3.92871C0.972656 13.3187 8.58266 20.9287 17.9727 20.9287C18.5227 20.9287 18.9727 20.4787 18.9727 19.9287V16.4287C18.9727 15.8787 18.5227 15.4287 17.9727 15.4287ZM3.00266 4.92871H4.50266C4.57266 5.80871 4.72266 6.67871 4.95266 7.50871L3.75266 8.71871C3.35266 7.50871 3.09266 6.24871 3.00266 4.92871ZM16.9727 18.8987C15.6527 18.8087 14.3727 18.5487 13.1727 18.1387L14.3727 16.9387C15.2227 17.1787 16.0927 17.3287 16.9727 17.3887V18.8987ZM17.9727 3.92871V3.42871C17.9727 2.04871 16.8527 0.928711 15.4727 0.928711C14.0927 0.928711 12.9727 2.04871 12.9727 3.42871V3.92871C12.4227 3.92871 11.9727 4.37871 11.9727 4.92871V8.92871C11.9727 9.47871 12.4227 9.92871 12.9727 9.92871H17.9727C18.5227 9.92871 18.9727 9.47871 18.9727 8.92871V4.92871C18.9727 4.37871 18.5227 3.92871 17.9727 3.92871ZM16.9727 3.92871H13.9727V3.42871C13.9727 2.59871 14.6427 1.92871 15.4727 1.92871C16.3027 1.92871 16.9727 2.59871 16.9727 3.42871V3.92871Z" fill="#44D600"/>
</svg>
