<svg width="17" height="22" viewBox="0 0 17 22" fill="none" xmlns="http://www.w3.org/2000/svg">
<path d="M14.1799 7.14453H13.1799V5.14453C13.1799 2.38453 10.9399 0.144531 8.17993 0.144531C5.41993 0.144531 3.17993 2.38453 3.17993 5.14453V7.14453H2.17993C1.07993 7.14453 0.179932 8.04453 0.179932 9.14453V19.1445C0.179932 20.2445 1.07993 21.1445 2.17993 21.1445H14.1799C15.2799 21.1445 16.1799 20.2445 16.1799 19.1445V9.14453C16.1799 8.04453 15.2799 7.14453 14.1799 7.14453ZM5.17993 5.14453C5.17993 3.48453 6.51993 2.14453 8.17993 2.14453C9.83993 2.14453 11.1799 3.48453 11.1799 5.14453V7.14453H5.17993V5.14453ZM14.1799 19.1445H2.17993V9.14453H14.1799V19.1445ZM8.17993 16.1445C9.27993 16.1445 10.1799 15.2445 10.1799 14.1445C10.1799 13.0445 9.27993 12.1445 8.17993 12.1445C7.07993 12.1445 6.17993 13.0445 6.17993 14.1445C6.17993 15.2445 7.07993 16.1445 8.17993 16.1445Z" fill="#FF1A43"/>
</svg>
