<svg width="41" height="41" viewBox="0 0 41 41" fill="none" xmlns="http://www.w3.org/2000/svg">
<path d="M40.2214 26.817L37.6753 26.015C37.4947 25.3918 37.2472 24.79 36.937 24.2201L38.21 21.8523C38.258 21.7619 38.2753 21.6584 38.2592 21.5573C38.2431 21.4562 38.1946 21.3632 38.1209 21.2922L36.275 19.4717C36.204 19.3981 36.1109 19.3495 36.0099 19.3334C35.9088 19.3174 35.8053 19.3346 35.7149 19.3826L33.3598 20.6556C32.7837 20.33 32.1731 20.0696 31.5394 19.8791L30.7628 17.3331C30.7303 17.2381 30.6683 17.156 30.5859 17.0988C30.5035 17.0415 30.4049 17.0121 30.3046 17.0148H27.7585C27.6588 17.0157 27.5619 17.0482 27.4818 17.1077C27.4017 17.1672 27.3426 17.2506 27.313 17.3458L26.5364 19.8918C25.8983 20.0814 25.2834 20.3419 24.7033 20.6684L22.3991 19.3954C22.3088 19.3474 22.2052 19.3301 22.1041 19.3462C22.0031 19.3622 21.91 19.4108 21.839 19.4845L19.8531 21.3176C19.7794 21.3886 19.7309 21.4817 19.7148 21.5828C19.6987 21.6838 19.716 21.7874 19.764 21.8777L21.037 24.1946C20.7245 24.7724 20.4769 25.3829 20.2986 26.015L17.7526 26.7916C17.6574 26.8212 17.574 26.8804 17.5145 26.9604C17.455 27.0405 17.4225 27.1374 17.4216 27.2371V29.7832C17.4225 29.8829 17.455 29.9798 17.5145 30.0599C17.574 30.14 17.6574 30.1991 17.7526 30.2287L20.2986 31.0053C20.5035 31.65 20.7811 32.2693 21.1261 32.8512L19.8531 35.2699C19.8051 35.3603 19.7878 35.4638 19.8039 35.5649C19.82 35.6659 19.8685 35.759 19.9422 35.83L21.7881 37.6759C21.8591 37.7496 21.9522 37.7981 22.0532 37.8142C22.1543 37.8303 22.2578 37.813 22.3482 37.765L24.7287 36.492C25.2911 36.7961 25.8843 37.0393 26.4982 37.2176L27.2748 39.7636C27.3044 39.8589 27.3636 39.9422 27.4436 40.0017C27.5237 40.0612 27.6206 40.0937 27.7203 40.0946H30.2664C30.3661 40.0937 30.463 40.0612 30.5431 40.0017C30.6232 39.9422 30.6823 39.8589 30.7119 39.7636L31.4885 37.2176C32.0982 37.039 32.6872 36.7958 33.2452 36.492L35.6512 37.765C35.7416 37.813 35.8452 37.8303 35.9462 37.8142C36.0473 37.7981 36.1404 37.7496 36.2114 37.6759L38.0572 35.83C38.1309 35.759 38.1795 35.6659 38.1955 35.5649C38.2116 35.4638 38.1944 35.3603 38.1463 35.2699L36.8733 32.8766C37.1824 32.3151 37.4299 31.7218 37.6117 31.1071L40.1577 30.3306C40.253 30.3009 40.3363 30.2418 40.3958 30.1617C40.4553 30.0817 40.4878 29.9848 40.4887 29.885V27.2881C40.498 27.1916 40.4773 27.0946 40.4295 27.0103C40.3817 26.926 40.309 26.8585 40.2214 26.817ZM28.9806 32.8257C28.145 32.8181 27.3302 32.5638 26.6386 32.0945C25.9471 31.6253 25.4097 30.9621 25.094 30.1883C24.7782 29.4146 24.6982 28.5648 24.864 27.7457C25.0298 26.9266 25.434 26.1748 26.0258 25.5847C26.6176 24.9947 27.3707 24.5927 28.1902 24.4294C29.0098 24.266 29.8594 24.3485 30.6322 24.6666C31.405 24.9846 32.0666 25.524 32.5338 26.2169C33.001 26.9098 33.2529 27.7254 33.258 28.5611C33.2596 29.1199 33.1508 29.6736 32.9377 30.1902C32.7246 30.7068 32.4115 31.1762 32.0164 31.5714C31.6212 31.9665 31.1518 32.2796 30.6352 32.4927C30.1186 32.7058 29.5649 32.8146 29.0061 32.813L28.9806 32.8257Z" fill="#234CE3"/>
<path d="M10.7512 31.6673C11.2832 31.553 11.7726 31.2922 12.1641 30.9142C12.5555 30.5363 12.8334 30.0563 12.9662 29.5286C13.7805 29.3145 14.5836 29.0596 15.3722 28.7648V27.2244C15.3776 26.9869 15.4161 26.7512 15.4868 26.5243C14.5889 26.9159 13.6661 27.2476 12.7244 27.5172C12.4496 26.9735 12.0108 26.5299 11.47 26.2495C10.9291 25.969 10.3138 25.8658 9.71105 25.9545C9.10832 26.0433 8.54879 26.3194 8.11173 26.7438C7.67466 27.1682 7.38222 27.7194 7.27584 28.3192H6.70298C4.47585 25.7338 3.18434 22.4736 3.03669 19.0644C4.74746 16.6667 6.90953 14.6257 9.40178 13.0558C9.77257 13.4351 10.2422 13.7029 10.7575 13.8289C11.2727 13.9549 11.813 13.9341 12.317 13.7687C13.8672 16.28 15.8752 18.478 18.2365 20.2483C18.32 20.1029 18.4181 19.9664 18.5293 19.841L19.6623 18.7334C17.364 17.057 15.4212 14.9411 13.9464 12.5084C14.235 12.0509 14.3894 11.5216 14.392 10.9808V10.7007C19.0584 9.14326 24.1063 9.15668 28.7644 10.7389C28.4219 12.2063 27.9314 13.6352 27.3004 15.0035C27.43 14.9716 27.562 14.9504 27.695 14.9398H29.5409C30.0079 13.8243 30.3909 12.6754 30.6866 11.5027C31.234 11.7446 31.756 12.0246 32.2906 12.3174C33.1047 14.1773 33.5375 16.1815 33.5636 18.2115L34.8367 17.5623C35.1979 17.3722 35.5996 17.2717 36.0078 17.2695H36.1097C35.8937 13.8181 34.6782 10.5041 32.6115 7.73152C30.5448 4.95892 27.7161 2.84746 24.4703 1.65454C21.2244 0.461621 17.7016 0.238766 14.3313 1.01314C10.961 1.78752 7.88879 3.52568 5.48916 6.01573C3.08953 8.50579 1.46615 11.6402 0.816917 15.0368C0.167682 18.4334 0.520636 21.9456 1.83275 25.1451C3.14487 28.3446 5.35947 31.0933 8.20659 33.0561C11.0537 35.0189 14.4103 36.111 17.8673 36.1992C17.6734 35.5835 17.7282 34.9164 18.0201 34.3406L18.3765 33.6659H18.2874C15.6441 33.668 13.0461 32.9791 10.7512 31.6673ZM18.2747 3.10078C20.3206 3.10387 22.345 3.51788 24.2278 4.31824C26.1106 5.11861 27.8135 6.28901 29.2354 7.76002C29.2354 8.07827 29.2354 8.40926 29.1335 8.72751C24.0204 7.04235 18.4941 7.09157 13.4118 8.86754C12.9797 8.49785 12.4485 8.26324 11.8842 8.19285C11.5434 7.14069 11.2838 6.06395 11.1076 4.97211C13.3054 3.76586 15.7678 3.12292 18.2747 3.10078ZM9.23629 6.1051C9.40092 6.93027 9.60913 7.74614 9.86006 8.54929C9.44362 8.81005 9.10019 9.17226 8.86195 9.60198C8.62371 10.0317 8.49846 10.5149 8.49794 11.0062C8.49794 11.0062 8.49794 11.1335 8.49794 11.1972C6.57446 12.4074 4.82675 13.8767 3.30403 15.5636C4.01719 11.7752 6.13627 8.3965 9.23629 6.1051Z" fill="#234CE3"/>
</svg>
