<svg width="41" height="29" viewBox="0 0 41 29" fill="none" xmlns="http://www.w3.org/2000/svg">
<path d="M27.9705 19.401C27.5731 19.401 27.192 19.5589 26.911 19.8399C26.63 20.1209 26.4722 20.502 26.4722 20.8994C26.4722 21.2968 26.63 21.6779 26.911 21.9589C27.192 22.2399 27.5731 22.3978 27.9705 22.3978H32.9652C33.3626 22.3978 33.7437 22.2399 34.0247 21.9589C34.3057 21.6779 34.4636 21.2968 34.4636 20.8994C34.4636 20.502 34.3057 20.1209 34.0247 19.8399C33.7437 19.5589 33.3626 19.401 32.9652 19.401H27.9705ZM0.5 6.91442C0.5 5.19236 1.18409 3.54083 2.40177 2.32315C3.61945 1.10547 5.27098 0.421387 6.99304 0.421387H33.9641C34.8168 0.421387 35.6611 0.589334 36.4489 0.91564C37.2367 1.24195 37.9525 1.72022 38.5554 2.32315C39.1583 2.92609 39.6366 3.64187 39.9629 4.42965C40.2892 5.21742 40.4572 6.06174 40.4572 6.91442V21.8983C40.4572 22.751 40.2892 23.5954 39.9629 24.3831C39.6366 25.1709 39.1583 25.8867 38.5554 26.4896C37.9525 27.0926 37.2367 27.5708 36.4489 27.8971C35.6611 28.2234 34.8168 28.3914 33.9641 28.3914H6.99304C5.27098 28.3914 3.61945 27.7073 2.40177 26.4896C1.18409 25.2719 0.5 23.6204 0.5 21.8983V6.91442ZM37.4604 9.41174V6.91442C37.4604 5.98716 37.092 5.09787 36.4363 4.4422C35.7807 3.78653 34.8914 3.41817 33.9641 3.41817H6.99304C6.06577 3.41817 5.17649 3.78653 4.52081 4.4422C3.86514 5.09787 3.49679 5.98716 3.49679 6.91442V9.41174H37.4604ZM3.49679 12.4085V21.8983C3.49679 23.8283 5.06311 25.3946 6.99304 25.3946H33.9641C34.8914 25.3946 35.7807 25.0262 36.4363 24.3706C37.092 23.7149 37.4604 22.8256 37.4604 21.8983V12.4085H3.49679Z" fill="#234CE3"/>
</svg>
