<svg width="37" height="36" viewBox="0 0 37 36" fill="none" xmlns="http://www.w3.org/2000/svg">
<path d="M29.3648 14.5557C29.3648 14.2597 29.2472 13.9757 29.0378 13.7664C28.8285 13.5571 28.5446 13.4395 28.2485 13.4395H17.086C16.79 13.4395 16.5061 13.5571 16.2967 13.7664C16.0874 13.9757 15.9698 14.2597 15.9698 14.5557C15.9698 14.8518 16.0874 15.1357 16.2967 15.345C16.5061 15.5543 16.79 15.672 17.086 15.672H28.2485C28.5446 15.672 28.8285 15.5543 29.0378 15.345C29.2472 15.1357 29.3648 14.8518 29.3648 14.5557ZM29.3648 21.2532C29.3648 20.9572 29.2472 20.6732 29.0378 20.4639C28.8285 20.2546 28.5446 20.137 28.2485 20.137H17.086C16.79 20.137 16.5061 20.2546 16.2967 20.4639C16.0874 20.6732 15.9698 20.9572 15.9698 21.2532C15.9698 21.5493 16.0874 21.8332 16.2967 22.0425C16.5061 22.2519 16.79 22.3695 17.086 22.3695H28.2485C28.5446 22.3695 28.8285 22.2519 29.0378 22.0425C29.2472 21.8332 29.3648 21.5493 29.3648 21.2532ZM28.2485 26.8345C28.5446 26.8345 28.8285 26.9521 29.0378 27.1614C29.2472 27.3707 29.3648 27.6547 29.3648 27.9507C29.3648 28.2468 29.2472 28.5307 29.0378 28.74C28.8285 28.9494 28.5446 29.067 28.2485 29.067H17.086C16.79 29.067 16.5061 28.9494 16.2967 28.74C16.0874 28.5307 15.9698 28.2468 15.9698 27.9507C15.9698 27.6547 16.0874 27.3707 16.2967 27.1614C16.5061 26.9521 16.79 26.8345 17.086 26.8345H28.2485Z" fill="#234CE3"/>
<path d="M31.5973 0.0444336C32.7815 0.0444336 33.9172 0.514852 34.7545 1.3522C35.5919 2.18955 36.0623 3.32524 36.0623 4.50943V31.2994C36.0623 32.4836 35.5919 33.6193 34.7545 34.4567C33.9172 35.294 32.7815 35.7644 31.5973 35.7644H4.80729C3.62309 35.7644 2.4874 35.294 1.65005 34.4567C0.812704 33.6193 0.342285 32.4836 0.342285 31.2994V4.50943C0.342285 3.32524 0.812704 2.18955 1.65005 1.3522C2.4874 0.514852 3.62309 0.0444336 4.80729 0.0444336L31.5973 0.0444336ZM4.80729 2.27693C4.21519 2.27693 3.64734 2.51214 3.22867 2.93082C2.80999 3.34949 2.57479 3.91734 2.57479 4.50943V6.74193H33.8298V4.50943C33.8298 3.91734 33.5946 3.34949 33.1759 2.93082C32.7572 2.51214 32.1894 2.27693 31.5973 2.27693H4.80729ZM2.57479 8.97443V31.2994C2.57479 31.8915 2.80999 32.4594 3.22867 32.8781C3.64734 33.2967 4.21519 33.5319 4.80729 33.5319H9.27229V8.97443H2.57479ZM11.5048 8.97443V33.5319H31.5973C32.1894 33.5319 32.7572 33.2967 33.1759 32.8781C33.5946 32.4594 33.8298 31.8915 33.8298 31.2994V8.97443H11.5048Z" fill="#234CE3"/>
</svg>
