<svg width="44" height="43" viewBox="0 0 44 43" fill="none" xmlns="http://www.w3.org/2000/svg">
<path d="M22 40.3125L10.4005 26.9435C10.2393 26.7428 10.0798 26.5408 9.92202 26.3375C7.94061 23.7868 6.87021 20.6712 6.87502 17.4688C6.87502 13.5485 8.46854 9.78885 11.305 7.01683C14.1415 4.24481 17.9886 2.6875 22 2.6875C26.0114 2.6875 29.8585 4.24481 32.695 7.01683C35.5315 9.78885 37.125 13.5485 37.125 17.4688C37.1298 20.6698 36.0599 23.7839 34.0794 26.3335L34.078 26.3375C34.078 26.3375 33.6655 26.8669 33.6036 26.9382L22 40.3125ZM12.1165 24.7183C12.1193 24.7183 12.4383 25.1322 12.5111 25.2208L22 36.1576L31.5013 25.2061C31.5618 25.1322 31.8835 24.7156 31.8849 24.7143C33.5035 22.6302 34.3782 20.0851 34.375 17.4688C34.375 14.2613 33.0712 11.1852 30.7505 8.91718C28.4297 6.64916 25.2821 5.375 22 5.375C18.718 5.375 15.5703 6.64916 13.2496 8.91718C10.9288 11.1852 9.62502 14.2613 9.62502 17.4688C9.62213 20.0867 10.4978 22.6333 12.1179 24.7183H12.1165Z" fill="#234CE3"/>
<path d="M28.875 24.1875H26.125V13.4375H17.875V24.1875H15.125V13.4375C15.1257 12.7249 15.4157 12.0418 15.9313 11.5379C16.4468 11.0341 17.1459 10.7507 17.875 10.75H26.125C26.8541 10.7507 27.5532 11.0341 28.0687 11.5379C28.5843 12.0418 28.8743 12.7249 28.875 13.4375V24.1875Z" fill="#234CE3"/>
<path d="M20.625 21.5H23.375V24.1875H20.625V21.5ZM20.625 16.125H23.375V18.8125H20.625V16.125Z" fill="#234CE3"/>
</svg>
