<svg width="37" height="38" viewBox="0 0 37 38" fill="none" xmlns="http://www.w3.org/2000/svg">
<path d="M35.18 30.8044H32.5397V28.1641H33.8599V22.8835H28.5793V24.2036H25.939V21.5633C25.939 21.2132 26.0781 20.8774 26.3256 20.6298C26.5732 20.3822 26.909 20.2432 27.2591 20.2432H35.18C35.5301 20.2432 35.8659 20.3822 36.1135 20.6298C36.3611 20.8774 36.5002 21.2132 36.5002 21.5633V29.4842C36.5002 29.8343 36.3611 30.1701 36.1135 30.4177C35.8659 30.6653 35.5301 30.8044 35.18 30.8044Z" fill="#234CE3"/>
<path d="M28.579 37.4057H20.6581C20.308 37.4057 19.9722 37.2666 19.7246 37.019C19.4771 36.7714 19.338 36.4356 19.338 36.0855V28.1646C19.338 27.8145 19.4771 27.4787 19.7246 27.2311C19.9722 26.9836 20.308 26.8445 20.6581 26.8445H28.579C28.9292 26.8445 29.2649 26.9836 29.5125 27.2311C29.7601 27.4787 29.8992 27.8145 29.8992 28.1646V36.0855C29.8992 36.4356 29.7601 36.7714 29.5125 37.019C29.2649 37.2666 28.9292 37.4057 28.579 37.4057ZM21.9783 34.7654H27.2589V29.4848H21.9783V34.7654ZM16.6977 24.0167C15.7438 23.7681 14.8787 23.257 14.2007 22.5415C13.5227 21.826 13.0589 20.9346 12.862 19.9688C12.665 19.0029 12.7429 18.0011 13.0867 17.0773C13.4305 16.1534 14.0264 15.3445 14.8069 14.7423C15.5873 14.1401 16.5209 13.7688 17.5018 13.6706C18.4826 13.5724 19.4714 13.7511 20.3557 14.1866C21.2401 14.622 21.9846 15.2967 22.5048 16.1341C23.0249 16.9714 23.2999 17.9378 23.2984 18.9236H25.9387C25.9403 17.4131 25.5099 15.9336 24.6983 14.6596C23.8867 13.3857 22.7277 12.3704 21.3581 11.7334C19.9885 11.0964 18.4652 10.8643 16.9681 11.0645C15.4709 11.2647 14.0621 11.8888 12.908 12.8633C11.7538 13.8377 10.9023 15.1218 10.4539 16.5643C10.0056 18.0067 9.97897 19.5473 10.3773 21.0043C10.7756 22.4614 11.5823 23.7741 12.7021 24.7878C13.8219 25.8015 15.2083 26.4739 16.6977 26.7257V24.0167Z" fill="#234CE3"/>
<path d="M35.0348 15.6891L31.9852 18.3691L30.1106 16.4944L33.2922 13.6957L30.1766 8.30951L25.6353 9.84088C24.5715 8.95541 23.3666 8.2548 22.0709 7.76824L21.1336 3.08171H14.9025L13.9651 7.76824C12.659 8.24119 11.4475 8.94304 10.3875 9.84088L5.85942 8.30951L2.74386 13.6957L6.33467 16.8509C6.09043 18.2174 6.09043 19.6164 6.33467 20.983L2.74386 24.1513L5.85942 29.5375L10.4007 28.0062C11.4645 28.8916 12.6694 29.5922 13.9651 30.0788L14.9025 34.7653H16.6979V37.4056H14.9025C14.2919 37.4051 13.7004 37.1931 13.2287 36.8056C12.7569 36.418 12.434 35.879 12.315 35.2802L11.6417 31.9534C11.044 31.6619 10.4663 31.3311 9.91228 30.9633L6.70432 32.0458C6.43152 32.1346 6.14629 32.1792 5.85942 32.1778C5.39568 32.181 4.9395 32.0604 4.538 31.8283C4.1365 31.5962 3.80425 31.2611 3.57556 30.8577L0.460002 25.4715C0.151862 24.9421 0.0373582 24.3221 0.136102 23.7176C0.234846 23.1131 0.540694 22.5617 1.00126 22.1579L3.53595 19.94C3.50955 19.5968 3.49635 19.2668 3.49635 18.9235C3.49635 18.5803 3.52275 18.2502 3.54916 17.9202L1.00126 15.6891C0.540694 15.2854 0.234846 14.734 0.136102 14.1295C0.0373582 13.525 0.151862 12.9049 0.460002 12.3756L3.57556 6.98936C3.80425 6.58592 4.1365 6.25085 4.538 6.01877C4.9395 5.78669 5.39568 5.66601 5.85942 5.6692C6.14629 5.66788 6.43152 5.71245 6.70432 5.80122L9.89908 6.88374C10.4576 6.51582 11.0397 6.18507 11.6417 5.89363L12.315 2.56685C12.434 1.96804 12.7569 1.429 13.2287 1.04148C13.7004 0.653952 14.2919 0.441897 14.9025 0.441406H21.1336C21.7441 0.441897 22.3356 0.653952 22.8073 1.04148C23.2791 1.429 23.602 1.96804 23.7211 2.56685L24.3943 5.89363C24.992 6.18514 25.5698 6.5159 26.1237 6.88374L29.3317 5.80122C29.6045 5.71245 29.8897 5.66788 30.1766 5.6692C30.6403 5.66601 31.0965 5.78669 31.498 6.01877C31.8995 6.25085 32.2318 6.58592 32.4605 6.98936L35.576 12.3756C35.8842 12.9049 35.9987 13.525 35.8999 14.1295C35.8012 14.734 35.4953 15.2854 35.0348 15.6891Z" fill="#234CE3"/>
</svg>
