<svg width="34" height="36" viewBox="0 0 34 36" fill="none" xmlns="http://www.w3.org/2000/svg">
<path d="M31.413 23.964L24.1947 16.5435L31.413 9.12305L33.1136 10.8669L27.5958 16.5435L33.1136 22.2202L31.413 23.964ZM24.1947 35.0947H21.8164V28.911C21.8164 27.271 21.1899 25.6981 20.0749 24.5384C18.9598 23.3788 17.4474 22.7273 15.8705 22.7273H8.73539C7.15844 22.7273 5.64608 23.3788 4.531 24.5384C3.41593 25.6981 2.78949 27.271 2.78949 28.911V35.0947H0.411133V28.911C0.411133 26.615 1.28815 24.413 2.84925 22.7894C4.41035 21.1659 6.52766 20.2538 8.73539 20.2538H15.8705C18.0782 20.2538 20.1955 21.1659 21.7566 22.7894C23.3177 24.413 24.1947 26.615 24.1947 28.911V35.0947ZM12.3029 2.93931C13.4789 2.93931 14.6285 3.30198 15.6063 3.98146C16.5841 4.66094 17.3462 5.62671 17.7962 6.75663C18.2463 7.88656 18.364 9.12991 18.1346 10.3294C17.9052 11.529 17.3389 12.6308 16.5073 13.4956C15.6758 14.3604 14.6163 14.9494 13.4629 15.188C12.3095 15.4266 11.114 15.3041 10.0275 14.8361C8.94106 14.368 8.01244 13.5755 7.35909 12.5585C6.70575 11.5416 6.35703 10.3461 6.35703 9.12305C6.35703 7.48302 6.98347 5.91016 8.09854 4.75049C9.21361 3.59081 10.726 2.93931 12.3029 2.93931ZM12.3029 0.46582C10.6565 0.46582 9.04714 0.973558 7.67822 1.92483C6.3093 2.87609 5.24236 4.22817 4.61232 5.81007C3.98227 7.39197 3.81743 9.13265 4.13862 10.812C4.45981 12.4913 5.25262 14.0339 6.41679 15.2446C7.58096 16.4554 9.0642 17.2799 10.6789 17.6139C12.2937 17.948 13.9674 17.7765 15.4885 17.1213C17.0095 16.466 18.3096 15.3564 19.2243 13.9327C20.139 12.5091 20.6272 10.8353 20.6272 9.12305C20.6272 6.82701 19.7502 4.62501 18.1891 3.00146C16.628 1.37792 14.5107 0.46582 12.3029 0.46582Z" fill="#234CE3"/>
</svg>
