<svg width="22" height="22" viewBox="0 0 22 22" fill="none" xmlns="http://www.w3.org/2000/svg">
<path d="M19.313 4.79091C17.8372 4.64424 16.3614 4.53424 14.8764 4.45174V4.44258L14.6747 3.25091C14.5372 2.40758 14.3355 1.14258 12.1905 1.14258H9.78888C7.65305 1.14258 7.45138 2.35258 7.30472 3.24174L7.11222 4.41508C6.25972 4.47008 5.40722 4.52508 4.55472 4.60758L2.68472 4.79091C2.29972 4.82758 2.02472 5.16674 2.06138 5.54258C2.09805 5.91841 2.42805 6.19341 2.81305 6.15674L4.68305 5.97341C9.48638 5.49674 14.3264 5.68008 19.1847 6.16591C19.2122 6.16591 19.2306 6.16591 19.258 6.16591C19.6064 6.16591 19.9089 5.90008 19.9455 5.54258C19.973 5.16674 19.698 4.82758 19.313 4.79091Z" fill="#FE3F51"/>
<path opacity="0.3991" d="M17.6291 7.46492C17.4091 7.23576 17.1066 7.10742 16.7949 7.10742H5.20823C4.89656 7.10742 4.58489 7.23576 4.37406 7.46492C4.16323 7.69409 4.04406 8.00576 4.06239 8.32659L4.63073 17.7316C4.73156 19.1249 4.85989 20.8666 8.05906 20.8666H13.9441C17.1432 20.8666 17.2716 19.1341 17.3724 17.7316L17.9407 8.33576C17.9591 8.00576 17.8399 7.69409 17.6291 7.46492Z" fill="#FE3F51"/>
<path fill-rule="evenodd" clip-rule="evenodd" d="M8.78076 15.5801C8.78076 15.2004 9.08857 14.8926 9.46826 14.8926H12.5208C12.9005 14.8926 13.2083 15.2004 13.2083 15.5801C13.2083 15.9598 12.9005 16.2676 12.5208 16.2676H9.46826C9.08857 16.2676 8.78076 15.9598 8.78076 15.5801Z" fill="#FE3F51"/>
<path fill-rule="evenodd" clip-rule="evenodd" d="M8.02002 11.9199C8.02002 11.5402 8.32782 11.2324 8.70752 11.2324H13.2909C13.6705 11.2324 13.9784 11.5402 13.9784 11.9199C13.9784 12.2996 13.6705 12.6074 13.2909 12.6074H8.70752C8.32782 12.6074 8.02002 12.2996 8.02002 11.9199Z" fill="#FE3F51"/>
</svg>
