<svg width="24" height="24" viewBox="0 0 24 24" fill="none" xmlns="http://www.w3.org/2000/svg">
<path d="M12.0016 1.99707C9.38159 1.99707 7.25159 4.12707 7.25159 6.74707C7.25159 9.31707 9.26159 11.3971 11.8816 11.4871C11.9616 11.4771 12.0416 11.4771 12.1016 11.4871C12.1216 11.4871 12.1316 11.4871 12.1516 11.4871C12.1616 11.4871 12.1616 11.4871 12.1716 11.4871C14.7316 11.3971 16.7416 9.31707 16.7516 6.74707C16.7516 4.12707 14.6216 1.99707 12.0016 1.99707Z" fill="#234CE3"/>
<path opacity="0.4" d="M17.0794 14.1548C14.2894 12.2948 9.73935 12.2948 6.92935 14.1548C5.65935 15.0048 4.95935 16.1548 4.95935 17.3848C4.95935 18.6148 5.65935 19.7548 6.91935 20.5948C8.31935 21.5348 10.1594 22.0048 11.9994 22.0048C13.8394 22.0048 15.6794 21.5348 17.0794 20.5948C18.3394 19.7448 19.0394 18.6048 19.0394 17.3648C19.0294 16.1348 18.3394 14.9948 17.0794 14.1548Z" fill="#234CE3"/>
<path d="M13.9984 16.6348H12.7484V15.3848C12.7484 14.9748 12.4084 14.6348 11.9984 14.6348C11.5884 14.6348 11.2484 14.9748 11.2484 15.3848V16.6348H9.99841C9.58841 16.6348 9.24841 16.9748 9.24841 17.3848C9.24841 17.7948 9.58841 18.1348 9.99841 18.1348H11.2484V19.3848C11.2484 19.7948 11.5884 20.1348 11.9984 20.1348C12.4084 20.1348 12.7484 19.7948 12.7484 19.3848V18.1348H13.9984C14.4084 18.1348 14.7484 17.7948 14.7484 17.3848C14.7484 16.9748 14.4084 16.6348 13.9984 16.6348Z" fill="#234CE3"/>
</svg>
