<svg width="20" height="20" viewBox="0 0 20 20" fill="none" xmlns="http://www.w3.org/2000/svg">
<path d="M15.0002 13.9589C14.8669 13.9589 14.7419 13.9172 14.6252 13.8339C14.3502 13.6256 14.2919 13.2339 14.5002 12.9589C15.8086 11.2172 15.8086 8.78389 14.5002 7.04222C14.2919 6.76722 14.3502 6.37555 14.6252 6.16722C14.9002 5.95889 15.2919 6.01722 15.5002 6.29222C17.1336 8.47555 17.1336 11.5256 15.5002 13.7089C15.3752 13.8756 15.1919 13.9589 15.0002 13.9589Z" fill="white"/>
<path d="M16.5237 16.0416C16.3903 16.0416 16.2653 15.9999 16.1487 15.9166C15.8737 15.7082 15.8153 15.3166 16.0237 15.0416C18.2487 12.0749 18.2487 7.9249 16.0237 4.95824C15.8153 4.68323 15.8737 4.29157 16.1487 4.08324C16.4237 3.8749 16.8153 3.93324 17.0237 4.20824C19.582 7.61657 19.582 12.3832 17.0237 15.7916C16.907 15.9582 16.7153 16.0416 16.5237 16.0416Z" fill="white"/>
<path opacity="0.4" d="M13.125 6.17347V13.8235C13.125 15.2568 12.6084 16.3318 11.6834 16.8485C11.3084 17.0568 10.8917 17.1568 10.4584 17.1568C9.79171 17.1568 9.07504 16.9318 8.34171 16.4735L5.90837 14.9485C5.74171 14.8485 5.55004 14.7901 5.35837 14.7901H4.58337V5.2068H5.35837C5.55004 5.2068 5.74171 5.14847 5.90837 5.04847L8.34171 3.52347C9.55837 2.76513 10.75 2.6318 11.6834 3.14847C12.6084 3.66513 13.125 4.74013 13.125 6.17347Z" fill="white"/>
<path d="M4.58329 5.20801V14.7913H4.16663C2.14996 14.7913 1.04163 13.683 1.04163 11.6663V8.33301C1.04163 6.31634 2.14996 5.20801 4.16663 5.20801H4.58329Z" fill="white"/>
</svg>
