<svg width="20" height="20" viewBox="0 0 20 20" fill="none" xmlns="http://www.w3.org/2000/svg">
<path opacity="0.4" d="M14.6824 4.76699L5.84071 13.6087C5.23238 12.7837 4.89905 11.7753 4.89905 10.6837V6.75866C4.89905 5.22533 5.58238 3.85033 6.66571 2.91699V6.36699C6.66571 6.69199 6.93238 6.95866 7.24905 6.95866C7.57405 6.95866 7.84071 6.69199 7.84071 6.36699V2.14199C8.22405 1.95033 8.63238 1.81699 9.05738 1.74199V4.79199C9.05738 5.12533 9.32405 5.38366 9.64905 5.38366C9.97405 5.38366 10.2407 5.12533 10.2407 4.79199V1.66699C12.2324 1.75866 13.949 3.00866 14.6824 4.76699Z" fill="#234CE3"/>
<path d="M15.1002 7.40234V10.6857C15.1002 13.494 12.8085 15.7857 10.0002 15.7857C9.85017 15.7857 9.70017 15.7773 9.55017 15.7607C9.4835 15.7607 9.41684 15.7523 9.3585 15.744C9.25017 15.7273 9.14184 15.7107 9.04184 15.694C9.00017 15.694 8.96684 15.6773 8.91684 15.669C8.80017 15.644 8.6835 15.6107 8.57517 15.5773C8.39184 15.5273 8.21684 15.4607 8.05017 15.394C7.94184 15.3523 7.84184 15.3107 7.74184 15.2523C7.71684 15.244 7.70017 15.2273 7.67517 15.219C7.59184 15.1773 7.5085 15.1357 7.42517 15.0773L15.1002 7.40234Z" fill="#234CE3"/>
<path d="M18.1248 9.16699V10.8337C18.1248 15.317 14.4831 18.9587 9.99978 18.9587C8.23311 18.9587 6.54145 18.392 5.14978 17.3503L6.04978 16.4503C7.19978 17.267 8.56645 17.7087 9.99978 17.7087C13.7914 17.7087 16.8748 14.6253 16.8748 10.8337V9.16699C16.8748 8.82533 17.1581 8.54199 17.4998 8.54199C17.8414 8.54199 18.1248 8.82533 18.1248 9.16699Z" fill="#234CE3"/>
<path d="M18.1408 1.86035C17.8908 1.61035 17.4824 1.61035 17.2324 1.86035L1.85742 17.2437C1.60742 17.4937 1.60742 17.902 1.85742 18.152C1.98242 18.2687 2.14076 18.3354 2.30742 18.3354C2.47409 18.3354 2.63242 18.2687 2.75742 18.1437L18.1408 2.76035C18.3991 2.51035 18.3991 2.11035 18.1408 1.86035Z" fill="#234CE3"/>
</svg>
