<svg width="17" height="24" viewBox="0 0 17 24" fill="none" xmlns="http://www.w3.org/2000/svg">
<path d="M7.69976 0.506104L0.571289 11.6595L8.63358 15.6222L16.5679 11.656L9.56562 0.506104H7.69976ZM7.74152 3.7376V7.60348L4.26392 9.18147L7.74152 3.7376ZM9.51853 3.77314L12.9108 9.17525L9.51853 7.61859V3.77402V3.77314ZM7.74152 9.55464V13.2037L3.88186 11.305L7.74152 9.55464ZM9.51853 9.57507L13.2911 11.3077L9.51853 13.1922V9.57419V9.57507ZM0.633485 13.4001V15.6391L7.67755 23.4962H9.58251L16.6266 15.6382V13.3992L8.63003 17.4988L0.633485 13.4001ZM4.65041 17.457L7.74152 19.0412V20.9035L4.65041 17.457ZM12.6096 17.457L9.51853 20.9035V19.0412L12.6096 17.457Z" fill="#FE3F51"/>
</svg>
