<svg width="26" height="24" viewBox="0 0 26 24" fill="none" xmlns="http://www.w3.org/2000/svg">
<path fill-rule="evenodd" clip-rule="evenodd" d="M13.3128 0.339659C13.564 0.389754 13.7705 0.574796 13.8502 0.821358C13.951 1.13337 13.7905 1.5033 13.4901 1.65119C13.344 1.72314 13.1941 1.74272 13.0398 1.71002C12.7232 1.6429 12.4858 1.35134 12.4858 1.02949C12.4858 0.83031 12.5498 0.678218 12.6936 0.535091C12.86 0.369593 13.0934 0.295927 13.3128 0.339659ZM7.28125 0.99019C7.36613 1.01304 7.44101 1.05136 7.50811 1.10625C7.69214 1.2568 7.74164 1.55016 7.6225 1.78406C7.58931 1.84922 7.48399 1.95969 7.41857 1.99794C7.18825 2.13266 6.86686 2.06811 6.71103 1.85583C6.54504 1.6297 6.55953 1.35304 6.74804 1.14943C6.88696 0.999394 7.09011 0.938719 7.28125 0.99019ZM19.3474 1.01294C19.506 1.05434 19.6382 1.1621 19.7097 1.30831C19.7495 1.38978 19.7514 1.40014 19.7514 1.5388C19.7514 1.6761 19.7492 1.68864 19.7108 1.76968C19.5749 2.05661 19.247 2.17514 18.9716 2.03693C18.7792 1.9404 18.672 1.76193 18.672 1.53825C18.672 1.30799 18.806 1.11634 19.0258 1.03239C19.1114 0.999684 19.2618 0.990581 19.3474 1.01294ZM8.89388 3.44001C9.19391 3.50715 9.43068 3.72362 9.5278 4.01957C9.55613 4.10588 9.56095 4.1426 9.56095 4.27207C9.56095 4.40178 9.55615 4.4381 9.52767 4.52457C9.48072 4.66711 9.41435 4.77146 9.30295 4.8779C9.23369 4.94406 9.17691 4.98449 9.10085 5.02177C8.94424 5.09854 8.86143 5.11562 8.67988 5.10864C8.55085 5.10369 8.51268 5.09709 8.42652 5.0649C8.20005 4.98027 8.04595 4.83925 7.94644 4.62557C7.73316 4.16758 7.96754 3.62433 8.44715 3.46502C8.58124 3.42049 8.76154 3.41039 8.89388 3.44001ZM17.8135 3.46478C17.9578 3.49577 18.0966 3.57421 18.2121 3.69011C18.3261 3.80447 18.3761 3.88393 18.4273 4.0322C18.458 4.12133 18.4621 4.15174 18.4623 4.29101C18.4624 4.43468 18.459 4.45856 18.4241 4.55762C18.2479 5.05781 17.6855 5.27812 17.2138 5.03171C17.1134 4.97924 16.936 4.80191 16.8834 4.70131C16.752 4.45042 16.7439 4.16967 16.8608 3.92563C17.0037 3.6276 17.2988 3.4438 17.6304 3.44637C17.686 3.4468 17.7684 3.45508 17.8135 3.46478ZM13.3249 4.1401C13.6471 4.19057 13.9197 4.38807 14.0639 4.67561C14.1998 4.94648 14.2044 5.27797 14.0761 5.55214C13.9451 5.83213 13.6842 6.03914 13.3823 6.10264C13.2695 6.12636 13.0739 6.12672 12.9638 6.1034C12.6475 6.03635 12.3721 5.80452 12.2501 5.50255C12.1568 5.27149 12.1607 4.95092 12.2595 4.72656C12.3542 4.5116 12.5451 4.31708 12.7563 4.2204C12.9102 4.14994 13.1613 4.11449 13.3249 4.1401ZM3.84289 5.81264C3.96724 5.84414 4.07655 5.90585 4.16655 5.99536C4.38454 6.21216 4.43727 6.51826 4.30523 6.80043C4.27852 6.8575 4.23963 6.9091 4.17555 6.97244C4.02658 7.11972 3.87729 7.18209 3.67373 7.18209C3.47641 7.18209 3.32422 7.12048 3.18666 6.98494C3.05885 6.85901 2.97936 6.66581 2.97936 6.48111C2.97936 6.39496 3.02076 6.23653 3.0643 6.15605C3.10974 6.07207 3.21581 5.95779 3.29623 5.90619C3.44832 5.80859 3.67428 5.76992 3.84289 5.81264ZM22.83 5.85123C23.0558 5.90588 23.2617 6.0994 23.3317 6.32269C23.3656 6.43105 23.3683 6.60377 23.3378 6.708C23.2667 6.95036 23.0903 7.12876 22.8517 7.19961C22.7655 7.22518 22.5782 7.22606 22.4853 7.20134C22.1797 7.12003 21.9666 6.8448 21.9673 6.53242C21.9677 6.34394 22.0307 6.18767 22.163 6.04746C22.3336 5.8666 22.5864 5.79225 22.83 5.85123ZM15.3769 6.82892C16.1123 6.93205 16.6916 7.48114 16.8371 8.21304C16.868 8.36829 16.868 8.68952 16.8372 8.83436C16.7608 9.19393 16.6118 9.47267 16.3632 9.72129C16.1127 9.97189 15.8429 10.1161 15.4779 10.1945C15.3139 10.2298 14.9968 10.2268 14.8214 10.1884C14.1706 10.0457 13.6857 9.58003 13.5182 8.93694C13.4689 8.74794 13.456 8.45921 13.4877 8.25868C13.5992 7.55466 14.1312 6.99547 14.8251 6.85288C14.9714 6.8228 15.2478 6.81081 15.3769 6.82892ZM11.3525 6.82829C11.5628 6.855 11.7493 6.91346 11.943 7.01333C12.1146 7.10181 12.2242 7.18344 12.3722 7.3329C12.6859 7.64974 12.8528 8.05624 12.8543 8.50769C12.8552 8.78168 12.8028 9.01911 12.689 9.25562C12.6086 9.42273 12.5151 9.55203 12.3662 9.70185C12.1105 9.95913 11.8435 10.103 11.4759 10.1819C11.327 10.2138 10.9943 10.2142 10.8462 10.1827C10.4867 10.1061 10.212 9.95978 9.9665 9.71413C9.70859 9.45607 9.54799 9.14123 9.48691 8.77397C9.45594 8.58771 9.46675 8.2995 9.51144 8.12024C9.675 7.46411 10.1904 6.97298 10.8469 6.84772C10.9738 6.82353 11.2358 6.81346 11.3525 6.82829ZM7.38335 7.56236C7.76379 7.62562 8.07461 7.90806 8.18336 8.2893C8.22318 8.42893 8.22318 8.66221 8.18336 8.80184C8.02044 9.37302 7.42933 9.67953 6.87713 9.47915C6.26991 9.25881 6.0303 8.50712 6.39969 7.98135C6.62224 7.6646 7.00854 7.50004 7.38335 7.56236ZM19.2488 7.58536C19.4665 7.61993 19.6565 7.7153 19.8066 7.86544C20.2932 8.352 20.1626 9.16 19.5479 9.46621C19.4079 9.53596 19.2671 9.56797 19.1001 9.56809C18.9308 9.5682 18.8072 9.53831 18.6467 9.45844C18.5464 9.40848 18.5082 9.38007 18.4132 9.28461C18.287 9.15788 18.2139 9.04192 18.1621 8.88644C17.9529 8.25786 18.3997 7.61378 19.0679 7.58068C19.1314 7.57754 19.2128 7.57964 19.2488 7.58536ZM9.43695 10.3077C10.121 10.4275 10.665 10.9532 10.8146 11.6386C10.8475 11.7894 10.8478 12.1682 10.8152 12.3175C10.6822 12.9259 10.2599 13.4028 9.68313 13.5958C9.44631 13.675 9.12075 13.6977 8.86252 13.653C8.33627 13.5619 7.873 13.2164 7.62984 12.7335C7.43949 12.3555 7.40239 11.8702 7.53237 11.4587C7.66266 11.0463 7.96966 10.6812 8.35629 10.479C8.50501 10.4013 8.70169 10.3346 8.86159 10.3078C9.00801 10.2832 9.29668 10.2832 9.43695 10.3077ZM17.4158 10.319C18.0038 10.4128 18.4882 10.7892 18.7236 11.3351C18.857 11.6445 18.8927 12.0062 18.8234 12.3463C18.6646 13.1254 17.9662 13.6962 17.1713 13.6964C16.508 13.6967 15.926 13.3399 15.6304 12.7518C15.5732 12.6382 15.5081 12.435 15.4842 12.296C15.4579 12.1431 15.4577 11.8593 15.4839 11.7081C15.596 11.0593 16.0821 10.5233 16.7088 10.3574C16.9186 10.3019 17.2094 10.2861 17.4158 10.319ZM4.36216 11.1337C4.70137 11.1802 4.98005 11.4288 5.06966 11.7649C5.09845 11.8728 5.09895 12.0721 5.07074 12.1815C5.00603 12.4324 4.83806 12.6338 4.60165 12.744C4.2061 12.9285 3.74491 12.7818 3.5138 12.398C3.4398 12.2752 3.40526 12.1458 3.40373 11.9858C3.40223 11.8284 3.41834 11.7486 3.47771 11.6197C3.60947 11.3336 3.87588 11.1522 4.19766 11.1295C4.24626 11.1261 4.32029 11.128 4.36216 11.1337ZM22.2701 11.1918C22.5648 11.2708 22.7878 11.4857 22.878 11.7775C22.9021 11.8553 22.9071 11.8993 22.9065 12.0237C22.9057 12.1558 22.901 12.1888 22.8696 12.2813C22.7802 12.5444 22.5743 12.7447 22.3079 12.8275C22.2294 12.8519 22.1864 12.8568 22.0554 12.8563C21.9182 12.8558 21.8841 12.8512 21.7939 12.8212C21.5879 12.7526 21.4029 12.5927 21.3097 12.4024C21.2397 12.2596 21.2176 12.1631 21.2188 12.0048C21.2206 11.7716 21.2996 11.5856 21.4681 11.4177C21.6406 11.2459 21.826 11.1707 22.0732 11.1724C22.1433 11.1728 22.2319 11.1816 22.2701 11.1918ZM1.17914 11.4243C1.27212 11.4405 1.39532 11.507 1.46856 11.5804C1.73151 11.8441 1.6544 12.2885 1.31674 12.4554C1.23459 12.496 1.20782 12.5028 1.11167 12.5074C0.928387 12.5161 0.799311 12.4642 0.675688 12.3321C0.484978 12.1282 0.485813 11.8051 0.677608 11.5995C0.711077 11.5636 0.760578 11.5202 0.787621 11.5031C0.894073 11.4356 1.05652 11.4029 1.17914 11.4243ZM25.4148 11.5029C25.5617 11.5542 25.6644 11.6521 25.7392 11.8119C25.7693 11.8763 25.7732 11.8995 25.7727 12.0111C25.7719 12.1578 25.7474 12.2355 25.6659 12.3492C25.4973 12.5847 25.1427 12.6363 24.9076 12.4596C24.7795 12.3634 24.6986 12.2159 24.685 12.0539C24.6666 11.834 24.7955 11.6206 25.0064 11.5216C25.0801 11.4871 25.1081 11.4811 25.2116 11.4777C25.3112 11.4744 25.3458 11.4787 25.4148 11.5029ZM11.4001 13.7782C12.0477 13.8858 12.5749 14.3391 12.768 14.9545C12.8414 15.1887 12.8628 15.5111 12.8206 15.748C12.6997 16.4262 12.1867 16.9626 11.5088 17.12C11.349 17.1571 11.0345 17.1661 10.8734 17.1381C10.5208 17.077 10.1908 16.9068 9.94149 16.6575C9.70225 16.4182 9.54565 16.1249 9.47278 15.7796C9.44127 15.6302 9.44127 15.2977 9.47278 15.1483C9.54488 14.8066 9.69619 14.5188 9.93072 14.2771C10.1729 14.0275 10.459 13.869 10.8004 13.7954C10.9523 13.7626 11.2544 13.754 11.4001 13.7782ZM15.4464 13.7919C15.993 13.8939 16.4336 14.227 16.6812 14.7254C16.9528 15.2723 16.8969 15.9479 16.5384 16.4511C16.4495 16.5759 16.2572 16.7679 16.1316 16.8572C15.7427 17.1337 15.2136 17.2324 14.7394 17.1169C14.1788 16.9803 13.7262 16.5598 13.5399 16.0025C13.4801 15.8238 13.4566 15.677 13.4558 15.4766C13.4537 14.959 13.6717 14.4849 14.0593 14.1643C14.2656 13.9936 14.4705 13.8889 14.7331 13.8198C14.8646 13.7852 14.9001 13.7812 15.1118 13.7773C15.2813 13.7742 15.3731 13.7782 15.4464 13.7919ZM7.44828 14.4422C7.77637 14.5281 8.03349 14.767 8.14389 15.0886C8.35743 15.7107 7.93616 16.342 7.26548 16.4049C7.09624 16.4208 6.8595 16.3662 6.70421 16.2754C6.60272 16.2161 6.45127 16.0746 6.38531 15.9775C6.17839 15.6729 6.15056 15.2917 6.31144 14.9653C6.43865 14.7072 6.68747 14.5094 6.9703 14.4416C7.11183 14.4077 7.31745 14.408 7.44828 14.4422ZM19.278 14.4595C19.6774 14.544 19.9861 14.8495 20.066 15.2393C20.1967 15.8765 19.6882 16.467 19.0387 16.4323C18.6026 16.409 18.2486 16.1228 18.1266 15.695C18.0867 15.5553 18.0867 15.3221 18.1266 15.1824C18.2253 14.8363 18.4829 14.5769 18.8257 14.4786C18.9445 14.4445 19.1635 14.4352 19.278 14.4595ZM3.84416 16.7879C4.13664 16.8719 4.3433 17.1472 4.34265 17.4519C4.34226 17.6403 4.27919 17.7966 4.14692 17.9368C3.9823 18.1113 3.74152 18.1875 3.50707 18.1393C3.40244 18.1178 3.24634 18.0369 3.17237 17.966C3.02558 17.8252 2.95279 17.6598 2.95156 17.4644C2.94958 17.1444 3.14934 16.8764 3.45825 16.7847C3.54976 16.7575 3.74406 16.7591 3.84416 16.7879ZM22.8241 16.8221C23.0538 16.8839 23.2488 17.0831 23.3119 17.3204C23.3354 17.4087 23.3354 17.5844 23.3119 17.6727C23.2474 17.9151 23.0549 18.1078 22.8128 18.1722C22.7223 18.1962 22.5472 18.196 22.4537 18.1716C22.2228 18.1115 22.0229 17.9116 21.9605 17.6786C21.932 17.5723 21.9346 17.3965 21.9661 17.2944C22.0372 17.0642 22.2261 16.8831 22.46 16.8208C22.5472 16.7976 22.7355 16.7983 22.8241 16.8221ZM13.4295 17.8825C13.741 17.9507 14.0121 18.1804 14.1333 18.4787C14.257 18.7831 14.2098 19.1858 14.0206 19.4408C13.8057 19.7303 13.4394 19.8907 13.0968 19.8454C12.6197 19.7822 12.2767 19.4396 12.2195 18.969C12.1814 18.6559 12.2928 18.3535 12.5274 18.1328C12.6682 18.0004 12.8208 17.9192 13.0011 17.881C13.106 17.8588 13.3247 17.8595 13.4295 17.8825ZM8.84371 18.8594C9.14376 18.9239 9.3829 19.1352 9.48585 19.4267C9.52029 19.5242 9.52433 19.5512 9.52479 19.687C9.52522 19.8112 9.52002 19.8555 9.49588 19.9331C9.45096 20.0776 9.38813 20.1799 9.27394 20.2942C9.10658 20.4617 8.91871 20.5391 8.67946 20.5391C8.52588 20.5391 8.43722 20.5183 8.2944 20.4487C8.20972 20.4074 8.16557 20.3748 8.08499 20.2942C7.90656 20.1155 7.8337 19.9414 7.83364 19.6933C7.8336 19.5668 7.83836 19.5336 7.87055 19.4353C7.95562 19.1758 8.15311 18.9793 8.41944 18.8893C8.49394 18.8641 8.54632 18.8559 8.65421 18.8527C8.73059 18.8504 8.81587 18.8534 8.84371 18.8594ZM17.807 18.893C18.194 18.9866 18.4689 19.3684 18.4402 19.7724C18.4156 20.1193 18.1921 20.4068 17.8577 20.5217C17.7687 20.5523 17.738 20.5564 17.5989 20.5564C17.4616 20.5565 17.428 20.5521 17.3401 20.5229C17.0681 20.4324 16.8715 20.2357 16.7822 19.9647C16.7538 19.8782 16.749 19.8419 16.749 19.7122C16.749 19.5825 16.7538 19.5462 16.7822 19.4597C16.8292 19.3172 16.8956 19.2128 17.007 19.1064C17.1125 19.0056 17.2543 18.9261 17.3901 18.8917C17.4849 18.8677 17.7051 18.8684 17.807 18.893ZM7.26372 21.9156C7.51423 22.0042 7.64899 22.2084 7.63558 22.4792C7.63102 22.5713 7.62316 22.6051 7.59022 22.6737C7.48754 22.8875 7.24082 23.0184 7.01371 22.9795C6.8016 22.9432 6.64567 22.8134 6.5768 22.6159C6.55539 22.5545 6.55122 22.5175 6.55483 22.4202C6.55866 22.3172 6.56496 22.2882 6.59947 22.2146C6.6561 22.0939 6.75576 21.9931 6.87121 21.9396C6.99137 21.8841 7.14758 21.8745 7.26372 21.9156ZM19.3453 21.9407C19.8121 22.1058 19.8514 22.7344 19.4087 22.9523C19.3262 22.993 19.3168 22.9947 19.1766 22.9947C19.0332 22.9947 19.0287 22.9938 18.9345 22.9472C18.7717 22.8668 18.661 22.7189 18.6306 22.5413C18.5914 22.3124 18.7163 22.0769 18.9337 21.9694C19.0206 21.9264 19.0396 21.922 19.1503 21.9185C19.2476 21.9154 19.2863 21.9198 19.3453 21.9407ZM13.3001 22.2643C13.5751 22.3216 13.769 22.4822 13.8618 22.7295C13.8969 22.8232 13.9093 23.0019 13.8878 23.1053C13.8256 23.405 13.5173 23.6564 13.2109 23.6573C12.9501 23.658 12.6925 23.5019 12.581 23.2755C12.4771 23.0645 12.4774 22.8554 12.582 22.6455C12.6692 22.4703 12.8431 22.3305 13.0343 22.2815C13.1253 22.2583 13.2366 22.2511 13.3001 22.2643Z" fill="#FF7A00"/>
</svg>
