<svg width="20" height="29" viewBox="0 0 20 29" fill="none" xmlns="http://www.w3.org/2000/svg">
<path d="M8.96517 0.46936L0.202148 14.1802L10.1131 19.0516L19.8668 14.1758L11.2589 0.46936H8.96517ZM9.0165 4.44183V9.19415L4.74149 11.134L9.0165 4.44183ZM11.201 4.48552L15.3711 11.1263L11.201 9.21272V4.48661V4.48552ZM9.0165 11.5927V16.0785L4.27182 13.7444L9.0165 11.5927ZM11.201 11.6178L15.8386 13.7477L11.201 16.0643V11.6167V11.6178ZM0.278605 16.3199V19.0723L8.93786 28.731H11.2796L19.9389 19.0712V16.3188L10.1087 21.3584L0.278605 16.3199ZM5.21661 21.3071L9.0165 23.2545V25.5438L5.21661 21.3071ZM15.0009 21.3071L11.201 25.5438V23.2545L15.0009 21.3071Z" fill="#00B2FF"/>
</svg>
