<svg width="25" height="26" viewBox="0 0 25 26" fill="none" xmlns="http://www.w3.org/2000/svg">
<path d="M21.4691 15.7309C20.5797 15.2236 19.5762 15.0726 18.5814 15.0349C17.754 15.0105 16.5123 14.4655 16.5123 12.9548C16.5123 11.8286 17.4214 10.9195 18.5939 10.8746C19.5888 10.8369 20.5923 10.6859 21.4809 10.1739C22.6874 9.47724 23.568 8.33 23.929 6.98436C24.29 5.63872 24.1019 4.2048 23.4061 2.99777C22.7043 1.78994 21.5521 0.909819 20.2021 0.55052C18.8522 0.191221 17.4149 0.382086 16.2056 1.08124C15.405 1.54045 14.7404 2.20345 14.2791 3.00282C13.8179 3.80219 13.5766 4.70943 13.5797 5.63231C13.5797 6.65152 13.9446 7.5858 14.407 8.46267C14.7971 9.19169 14.985 10.5554 13.6615 11.3213C12.6666 11.8907 11.4256 11.5353 10.8114 10.5436C10.2916 9.70366 9.66403 8.92116 8.77537 8.41391C6.26115 6.9598 3.0415 7.8233 1.59998 10.3304C0.904657 11.5379 0.71719 12.972 1.07878 14.3177C1.44036 15.6633 2.32141 16.8103 3.5283 17.5066C4.32728 17.9653 5.2325 18.2067 6.1538 18.2067C7.0751 18.2067 7.98032 17.9653 8.7793 17.5066C9.66403 16.9978 10.2916 16.2161 10.8114 15.377C11.2369 14.692 12.3143 13.8159 13.6615 14.5976C14.6579 15.1631 14.9646 16.4213 14.407 17.461C13.9485 18.3206 13.5797 19.2674 13.5797 20.2866C13.5797 23.187 15.9319 25.5337 18.8307 25.5376C20.2231 25.537 21.5584 24.9836 22.543 23.999C23.5276 23.0143 24.081 21.6791 24.0816 20.2866C24.0863 19.3644 23.847 18.4573 23.3881 17.6574C22.9291 16.8575 22.2668 16.1931 21.4683 15.7316L21.4691 15.7309Z" fill="#0DBF0A"/>
</svg>
