<svg width="24" height="24" viewBox="0 0 24 24" fill="none" xmlns="http://www.w3.org/2000/svg">
<path d="M9.25021 3.55403C7.7872 4.04555 6.47517 4.90504 5.44017 6.04993C4.40517 7.19482 3.68198 8.58664 3.34007 10.0917C2.99817 11.5967 3.04905 13.1644 3.48782 14.644C3.92658 16.1237 4.7385 17.4657 5.84555 18.5411C6.95261 19.6165 8.31761 20.3891 9.80942 20.7847C11.3012 21.1803 12.8697 21.1857 14.3642 20.8002C15.8586 20.4148 17.2289 19.6515 18.3432 18.5837C19.4576 17.5159 20.2786 16.1794 20.7275 14.7028C16.9025 16.3453 12.5735 16.9303 7.73934 16.4634C6.93946 11.8217 7.44234 7.51966 9.25021 3.55403ZM12.0042 3.08828C11.2562 4.42611 10.6737 5.84994 10.2695 7.32841C12.0101 7.3631 13.6695 8.07121 14.8988 9.30391C16.0617 10.4635 16.76 12.0085 16.862 13.6475C18.3582 13.2639 19.7746 12.725 21.1145 12.0354C21.1085 10.8484 20.8675 9.67427 20.4056 8.5808C19.9436 7.48734 19.2697 6.49615 18.4228 5.6644C17.5759 4.83264 16.5727 4.17678 15.4711 3.73464C14.3694 3.2925 13.1912 3.07282 12.0042 3.08828ZM4.15959 20.0432C-0.233535 15.65 -0.233535 8.52653 4.15959 4.13341C8.55271 -0.259719 15.6762 -0.259719 20.0693 4.13341C24.4625 8.52653 24.4625 15.65 20.0693 20.0432C15.6762 24.4363 8.55271 24.4363 4.15959 20.0432ZM9.80709 9.58853C9.59051 11.1654 9.5618 12.7625 9.72159 14.3462C11.3607 14.4184 13.003 14.3355 14.6266 14.0987C14.6302 13.5039 14.5155 12.9143 14.2891 12.3642C14.0627 11.8142 13.7293 11.3146 13.3081 10.8947C12.8526 10.4383 12.3041 10.0854 11.7 9.85997C11.0958 9.63459 10.4502 9.54201 9.80709 9.58853Z" fill="#FE3F51"/>
</svg>
