<svg width="15" height="20" viewBox="0 0 15 20" fill="none" xmlns="http://www.w3.org/2000/svg">
<path d="M3.86707 19.9324V17.8H0.668457V15.6676H2.80087V5.00555H0.668457V2.87313H3.86707V0.740723H5.99949V2.87313H8.1319V0.740723H10.2643V3.00641C11.1884 3.25519 11.9525 3.75702 12.5567 4.51189C13.1608 5.26748 13.4629 6.14283 13.4629 7.13796C13.4629 7.65329 13.3741 8.14623 13.1964 8.61679C13.0187 9.08805 12.7699 9.51027 12.45 9.88344C13.072 10.2566 13.5738 10.7631 13.9555 11.4028C14.3379 12.0425 14.5291 12.7533 14.5291 13.5352C14.5291 14.708 14.1115 15.712 13.2763 16.5472C12.4411 17.3824 11.4371 17.8 10.2643 17.8V19.9324H8.1319V17.8H5.99949V19.9324H3.86707ZM4.93328 9.27037H9.1981C9.78452 9.27037 10.2867 9.06139 10.7047 8.64344C11.1219 8.2262 11.3305 7.72437 11.3305 7.13796C11.3305 6.55154 11.1219 6.04936 10.7047 5.63141C10.2867 5.21417 9.78452 5.00555 9.1981 5.00555H4.93328V9.27037ZM4.93328 15.6676H10.2643C10.8507 15.6676 11.3529 15.459 11.7709 15.0417C12.1881 14.6238 12.3967 14.1216 12.3967 13.5352C12.3967 12.9488 12.1881 12.4466 11.7709 12.0286C11.3529 11.6114 10.8507 11.4028 10.2643 11.4028H4.93328V15.6676Z" fill="#234CE3"/>
</svg>
