<svg width="25" height="22" viewBox="0 0 25 22" fill="none" xmlns="http://www.w3.org/2000/svg">
<path d="M12.4376 0.494771C11.073 0.455364 9.71458 0.699725 8.44272 1.21341C7.17086 1.72709 6.01134 2.49966 5.03272 3.48545C4.05411 4.47124 3.27625 5.65025 2.74515 6.95275C2.21404 8.25526 1.94047 9.65483 1.94059 11.0687C1.94059 11.3385 1.95065 11.6062 1.97077 11.8739C1.99833 12.2525 1.91717 12.631 1.73749 12.9619C1.55781 13.2927 1.28764 13.5611 0.960996 13.7333L0.0839844 14.1969V16.3573L2.66674 14.9937L3.50353 14.5521L4.32824 14.1177L19.1228 6.30935L20.7853 5.43227L24.2219 3.61873V1.45831L20.8155 3.25831L17.9088 4.79269L3.87364 12.1969C3.82652 11.8217 3.803 11.4439 3.80324 11.0656C3.80517 9.55705 4.18758 8.07519 4.91259 6.7668C5.63759 5.45841 6.68004 4.36889 7.93668 3.60614C9.19332 2.84339 10.6206 2.43389 12.077 2.41819C13.5335 2.4025 14.9686 2.78115 16.2403 3.51665L17.9038 2.63852L18.1522 2.50727C16.4866 1.2554 14.4947 0.553921 12.4376 0.494771ZM24.2219 5.78019L5.16804 15.8281L3.50554 16.7073L0.0839844 18.5146V20.6729L3.4814 18.8791L6.38801 17.3448L20.4383 9.93123C20.4854 10.3084 20.5089 10.6884 20.5087 11.0687C20.5078 12.579 20.1255 14.0628 19.3998 15.3727C18.6741 16.6827 17.6302 17.7733 16.3718 18.5363C15.1133 19.2992 13.6841 19.7081 12.226 19.7222C10.7679 19.7363 9.33152 19.3552 8.05956 18.6166L7.95798 18.6729L6.15467 19.625C7.67831 20.7705 9.47805 21.4575 11.355 21.6101C13.232 21.7626 15.1132 21.3748 16.7907 20.4894C18.4682 19.604 19.8768 18.2556 20.8607 16.5931C21.8447 14.9306 22.3657 13.0187 22.3663 11.0687C22.3663 10.7979 22.3563 10.525 22.3361 10.2562C22.3086 9.87783 22.3897 9.49944 22.5692 9.16862C22.7487 8.8378 23.0185 8.5693 23.3449 8.39685L24.2219 7.93331V5.78019Z" fill="#35446F"/>
</svg>
